<?xml version="1.0" encoding="utf-8"?>
<!-- Generator: Adobe Illustrator 18.0.0, SVG Export Plug-In . SVG Version: 6.00 Build 0)  -->
<!DOCTYPE svg PUBLIC "-//W3C//DTD SVG 1.1//EN" "http://www.w3.org/Graphics/SVG/1.1/DTD/svg11.dtd">
<svg version="1.1" id="Capa_1" xmlns="http://www.w3.org/2000/svg" xmlns:xlink="http://www.w3.org/1999/xlink" x="0px" y="0px"
	 viewBox="0 0 1049 312" enable-background="new 0 0 1049 312" xml:space="preserve">
<g>
	<path fill="#E60012" stroke="#E60012" stroke-width="6.6937" stroke-miterlimit="10" d="M242.5,182.3c0.2,6.7,1.3,12.6,3.3,17.8
		c2,5.2,4.6,9.6,7.9,13.3c3.3,3.7,7.2,6.6,11.7,8.5c4.5,2,9.3,3,14.4,3c8.9,0,16.7-2.2,23.3-6.5c3.6-2.2,6.9-4.7,9.8-7.4
		c2.9-2.7,6.7-6.2,11.5-10.6c1.9-1.7,4.7-2.5,8.3-2.5c4,0,7.2,1.1,9.5,3.3c2.4,2.2,3.5,5.2,3.5,9c0,3.6-1.4,7.7-4.1,12.2
		c-2.7,4.5-6.8,8.8-12.2,12.9c-5.4,4.1-12.2,7.5-20.2,10.3s-17.5,4.2-28.3,4.2c-12.1,0-23-1.8-32.6-5.3c-9.6-3.5-17.6-8.7-24.2-15.4
		c-6.5-6.8-11.6-14.9-15.1-24.3c-3.5-9.4-5.3-20.1-5.3-32.1c0-11.4,1.7-21.8,5-31.3c3.3-9.5,8.2-17.6,14.7-24.4
		c6.4-6.8,14.2-12,23.3-15.8c9.1-3.8,19.6-5.6,31.3-5.6c11.1-0.3,21,1.5,29.8,5.3c8.7,3.8,16.1,8.8,22.1,15
		c6,6.2,10.5,13.1,13.6,20.8c3.1,7.6,4.6,15.3,4.4,22.8c0,9.5-2.7,15.7-8.2,18.5c-5.5,2.8-13.2,4.2-23.1,4.2H242.5z M312.6,162.2
		c-0.9-13.1-4.4-22.9-10.5-29.2c-6.1-6.3-14.1-9.5-24-9.5c-5.3,0-10,1.4-14,4.2c-4.1,2.8-7.5,6.4-10.2,10.8c-2.7,4.4-5,9.1-6.7,14
		c-1.7,4.9-3,9.5-3.8,13.8c-0.8,4.3-1.1,7.8-1,10.6c0.1,2.8,0.1,4.3,0,4.6L312.6,162.2z"/>
	<path fill="#E60012" stroke="#E60012" stroke-width="6.6937" stroke-miterlimit="10" d="M379.8,227.1V62.6c0-7.6,1.7-13.3,5.1-17.2
		c3.4-3.9,7.9-5.8,13.7-5.8c5.7,0,10.4,1.9,13.9,5.8c3.5,3.8,5.3,9.6,5.3,17.3v164.5c0,7.7-1.8,13.5-5.3,17.3
		c-3.6,3.8-8.2,5.8-13.8,5.8c-5.6,0-10.1-2-13.5-6C381.6,240.2,379.8,234.5,379.8,227.1z"/>
	<path fill="#E60012" stroke="#E60012" stroke-width="6.6937" stroke-miterlimit="10" d="M577,214.4c-1.1,7.3-4.1,13.5-8.9,18.6
		c-4.8,5.1-11.7,9.2-20.7,12.4c-9,3.1-20.6,4.7-34.9,4.7c-13.6,0-25.3-2.1-35-6.2c-9.7-4.2-16.9-9.4-21.5-15.6
		c-4.6-6.3-6.9-12.5-6.9-18.8c0-4.2,1.5-7.7,4.4-10.7c3-3,6.7-4.4,11.3-4.4c4,0,7,1,9.2,2.9c2.1,1.9,4.2,4.7,6.1,8.2
		c3.9,6.8,8.5,11.8,14,15.1c5.4,3.3,12.8,5,22.2,5c7.6,0,14.2-1.5,19.9-4.4c5.7-3,8.7-9.5,9-19.7c-1.7-8.5-5-14.3-10.1-17.4
		c-5-3.1-13.4-6-24.9-8.7c-13.1-3.2-23.1-5.7-30.2-7.4c-7.1-1.7-13.4-4.8-19-9.4c-5.6-4.6-9-10.9-10.1-18.8c0-7.6,2.3-14.8,6.8-21.5
		c4.5-6.8,11.2-12.2,20.1-16.2c8.8-4,19.5-6,32-6c9.8,0,18.6,1,26.5,3.1c7.8,2,14.4,4.8,19.6,8.2c5.2,3.4,9.2,7.2,11.9,11.4
		c2.7,4.2,4.1,8.2,4.1,12.2c0,4.4-1.5,7.9-4.4,10.7c-2.9,2.8-7.1,4.2-12.4,4.2c-3.9,0-7.2-1.1-9.9-3.3c-2.7-2.2-5.9-5.6-9.4-10
		c-2.9-3.7-6.3-6.7-10.1-8.9c-3.9-2.2-9.2-3.3-15.8-3.3c-6.9,0-12.5,1.5-17.1,4.4c-4.5,2.9-7,7.1-7.4,12.4
		c-1.2,6.7-0.1,12.4,3.3,17.2c3.4,4.8,8.3,8.3,14.7,10.5c6.3,2.2,14.5,4.5,24.4,6.9c11.8,2.9,21.4,6.3,28.8,10.3
		c7.5,4,12.8,8.4,15.9,13.3C575.4,199.9,577,206.4,577,214.4z"/>
	<path fill="#E60012" stroke="#E60012" stroke-width="6.6937" stroke-miterlimit="10" d="M646.1,254.8l3.5-8.5l-46.7-117.5
		c-2.9-6.8-4.3-11.7-4.3-14.7c0-3.2,0.8-6.3,2.5-9c1.7-2.8,4-5,6.9-6.7c2.9-1.7,6-2.5,9.1-2.5c5.5,0,9.6,1.7,12.4,5.2
		c2.8,3.5,5.2,8.5,7.4,14.9l14.7,128.1l47.8-121.5c2.4-7,4.6-12.5,6.5-16.5c1.9-4,4-6.7,6.2-8.1c2.2-1.4,5.3-2.1,9.2-2.1
		c2.9,0,5.6,0.8,8.3,2.3c2.6,1.5,4.7,3.6,6.1,6.2c1.4,2.6,2.2,5.3,2.2,8.2c-0.4,1.8-1,4.3-1.8,7.5c-0.8,3.2-1.9,6.5-3.1,9.9
		l-49.5,129.5c-4.3,11.4-8.4,20.3-12.5,26.8c-4.1,6.5-9.5,11.5-16.2,14.9c-6.7,3.5-15.8,5.2-27.2,5.2c-11.1,0-19.4-1.2-25-3.6
		c-5.6-2.4-8.3-6.8-8.3-13.2c0-4.4,1.3-7.7,4-10.1c2.6-2.4,6.6-3.5,11.7-3.5c2,0,4,0.3,6,0.8c2.4,0.6,4.5,0.8,6.3,0.8
		c4.4,0,7.8-0.6,10.3-1.9c2.5-1.3,4.7-3.5,6.7-6.7C641.2,265.8,643.5,261.1,646.1,254.8z"/>
	<path fill="#E60012" stroke="#E60012" stroke-width="6.6937" stroke-miterlimit="10" d="M885.3,214.4c-1.1,7.3-4.1,13.5-8.9,18.6
		c-4.8,5.1-11.7,9.2-20.7,12.4c-9,3.1-20.6,4.7-34.9,4.7c-13.6,0-25.3-2.1-35-6.2c-9.7-4.2-16.9-9.4-21.5-15.6
		c-4.6-6.3-6.9-12.5-6.9-18.8c0-4.2,1.5-7.7,4.4-10.7c3-3,6.7-4.4,11.3-4.4c4,0,7,1,9.2,2.9c2.1,1.9,4.2,4.7,6.1,8.2
		c3.9,6.8,8.5,11.8,14,15.1c5.4,3.3,12.8,5,22.2,5c7.6,0,14.2-1.5,19.9-4.4c5.7-3,8.7-9.5,9-19.7c-1.7-8.5-5-14.3-10.1-17.4
		c-5-3.1-13.4-6-24.9-8.7c-13.1-3.2-23.1-5.7-30.2-7.4c-7.1-1.7-13.4-4.8-19-9.4c-5.6-4.6-9-10.9-10.1-18.8c0-7.6,2.3-14.8,6.8-21.5
		c4.5-6.8,11.2-12.2,20.1-16.2c8.8-4,19.5-6,32-6c9.8,0,18.6,1,26.5,3.1c7.8,2,14.4,4.8,19.6,8.2c5.2,3.4,9.2,7.2,11.9,11.4
		c2.7,4.2,4.1,8.2,4.1,12.2c0,4.4-1.5,7.9-4.4,10.7c-2.9,2.8-7.1,4.2-12.4,4.2c-3.9,0-7.2-1.1-9.9-3.3c-2.7-2.2-5.9-5.6-9.4-10
		c-2.9-3.7-6.3-6.7-10.1-8.9c-3.9-2.2-9.2-3.3-15.8-3.3c-6.9,0-12.5,1.5-17.1,4.4c-4.5,2.9-7,7.1-7.4,12.4
		c-1.2,6.7-0.1,12.4,3.3,17.2c3.4,4.8,8.3,8.3,14.7,10.5c6.3,2.2,14.5,4.5,24.4,6.9c11.8,2.9,21.4,6.3,28.8,10.3
		c7.5,4,12.8,8.4,15.9,13.3C883.8,199.9,885.3,206.4,885.3,214.4z"/>
	<path fill="#E60012" stroke="#E60012" stroke-width="6.6937" stroke-miterlimit="10" d="M898.2,282.2V268h145.6v14.2H898.2z"/>
	<path fill="#E60012" stroke="#E60012" stroke-width="6.6937" stroke-miterlimit="10" d="M175.9,225.4c-1.4-3.9-3.3-8.3-5.8-13.3
		c-2.5-5-5.4-10.3-8.8-15.9c-3.4-5.6-7.1-11.1-11.2-16.4c-4.1-5.3-8.5-10.2-13.1-14.7c-4.7-4.4-9.5-7.9-14.4-10.4
		c17.6-3.7,30.6-10.1,39.1-19.1c8.5-9,12.7-21.2,12.7-36.6c0-11.2-2.8-21.3-8.5-30.4c-5.7-9.1-13.5-15.6-23.4-19.6
		c-5.3-2.5-11.2-4.1-17.7-4.9c-6.5-0.7-14.5-1.1-23.8-1.1H42.6l0,34.1H8.5V225c0,16.6,6.9,24.9,20.7,24.9c6.1,0,11.1-2,14.9-6
		c3.8-4,5.7-10.3,5.7-18.9v-65.4h14.4c5.5,0,10.2,0.5,14.2,1.6c4,1.1,7.8,2.9,11.2,5.6c3.5,2.6,7,6.3,10.5,11.1
		c3.5,4.8,7.6,11,12.4,18.5l16.5,27.5c2.7,4.5,5,8.4,7,11.7c2,3.2,4,5.9,6,7.8c2,2,4.2,3.5,6.7,4.5c2.5,1,5.6,1.7,9.4,1.9
		c5.8,0,10.6-1.6,14.3-4.9c3.7-3.2,5.6-7,5.6-11.4C178,232,177.3,229.3,175.9,225.4z M108.5,131.7c-4.9,2.5-11.7,5.8-20.6,9.9
		l-38.1,16.7V74h38.1c13.9,0,23.4,1,28.5,3.1c5.1,2.1,9.1,5.3,11.9,9.5c2.9,4.3,4.3,9.3,4.3,15c0,5.5-1,10-2.8,13.5
		c-1.9,3.5-4.7,6.6-8.4,9.1C117.6,126.8,113.3,129.3,108.5,131.7z"/>
	<rect x="5.2" y="5.6" fill="#E60012" width="34.1" height="34.1"/>
</g>
</svg>
