<?xml version="1.0" encoding="utf-8"?>
<!-- Generator: Adobe Illustrator 18.0.0, SVG Export Plug-In . SVG Version: 6.00 Build 0)  -->
<!DOCTYPE svg PUBLIC "-//W3C//DTD SVG 1.1//EN" "http://www.w3.org/Graphics/SVG/1.1/DTD/svg11.dtd">
<svg version="1.1" id="Capa_1" xmlns="http://www.w3.org/2000/svg" xmlns:xlink="http://www.w3.org/1999/xlink" x="0px" y="0px"
	 viewBox="0 0 441 173" enable-background="new 0 0 441 173" xml:space="preserve">
<g>
	<g>
		<path fill="#FFFFFF" d="M128.1,10.8c-17.4-9.4-37.3-12.4-56.2-9l12.9,68.3c3.3-0.5,6.5,0,9.3,1.3L128.1,10.8z"/>
		<path fill="#FFFFFF" d="M70.8,88.7L1.2,89.5c0.7,18.7,7.4,37.2,20,52.3L74,96.5c-1.5-2-2.6-4.3-3.1-6.9
			C70.9,89.3,70.9,89,70.8,88.7z"/>
		<path fill="#FFFFFF" d="M19.3,33.7C7.1,49.3,1.1,68.2,1.2,86.9l69.5-0.8c0.1-3,1-5.9,2.5-8.4L19.3,33.7z"/>
		<path fill="#FFFFFF" d="M85.5,103l-11.3,68.6c18.8,2.9,38.3-0.5,55.2-10l-35.5-59.9c-1.1,0.5-2.3,0.9-3.6,1.1
			C88.6,103.1,87,103.1,85.5,103z"/>
		<path fill="#FFFFFF" d="M75.7,98.4L23,143.7c1.7,1.9,3.4,3.7,5.2,5.4c12.5,11.8,27.7,19.1,43.5,22l11.3-68.6
			C80.2,101.8,77.7,100.3,75.7,98.4z"/>
		<path fill="#FFFFFF" d="M69.4,2.3C52.8,5.8,37.1,14.2,24.6,27.5c-1.3,1.4-2.5,2.7-3.7,4.2l53.7,44c2-2.3,4.6-4.1,7.6-5L69.4,2.3z"
			/>
	</g>
	<g>
		<path fill="#FFFFFF" d="M193.1,42.8l-5.9,27.7h1c10,0,17-11.8,17-20.9c0-6.7-3.8-12.6-13.2-12.6c-19.4,0-32.4,10.9-32.4,29.2
			c0,6.1,1.6,7.1,1.7,8.2c-8.3,0-12.8-3-12.8-11.6c0-16,22.1-31.2,42.1-31.2c19,0,27.2,9.4,27.2,19.2c0,7.3-4.7,15.6-13,20.5
			c6.4,1.8,8.3,6.4,8.3,12c0,9.8-5.9,22.8-5.9,30.4c0,3.6,1.8,6.8,4.7,7.9c-5,1.4-9,2-11.9,2c-7.8,0-9.4-4.1-9.4-8
			c0-7.9,6.4-22.4,6.4-31.6c0-4.8-1.8-8.2-7.2-8.2c-1.1,0-2.4,0.2-4,0.5l-9.6,45.2H159l16.3-76.3L193.1,42.8z"/>
		<path fill="#FFFFFF" d="M244.7,112.1c9.5,0,15.2-5.3,21.2-12.1h4.1c-6.8,11-17,22.2-33,22.2c-11.3,0-18.7-5.5-18.7-19.1
			c0-13.8,7.8-42.7,32.4-42.7c10.7,0,13.2,5.5,13.2,11.5c0,13.8-13.2,24.5-27.6,25.3c-0.1,1.7-0.2,3.4-0.2,4.8
			C236.1,110.2,238.9,112.1,244.7,112.1z M251.7,66.8c-6.1,0-12,12.8-14.4,24.7c9.2-0.6,17.4-9.8,17.4-19.8
			C254.7,68.7,253.9,66.8,251.7,66.8z"/>
		<path fill="#FFFFFF" d="M296.5,37.5l-13.8,64.8c-0.4,1.6-0.5,2.8-0.5,3.8c0,3.4,1.6,4.4,4.9,4.4c4.7,0,9-4.6,10.8-10.6h5
			c-6.8,19.6-18.7,22.2-25.2,22.2c-7.2,0-12.8-4.3-12.8-14.4c0-2.3,0.4-4.9,1-7.8l12.8-60.1L296.5,37.5z"/>
		<path fill="#FFFFFF" d="M348.9,100c-6.2,7.2-12.8,11.8-18.4,15c-5,5.3-12.7,7.2-18.8,7.2c-12.2,0-17.5-8-17.5-15.4
			c0-5.5,3.1-9.6,6.4-11.2c6.7-11.9,11-23.8,14.8-35.5l17.8-2.4c1.4,31.1,2.6,35.8,2.6,43.7c0,1.7-0.1,3.1-0.5,4.6
			c3.2-1.9,6.4-4.1,8.6-6H348.9z M303.7,105.9c-1.2,0-2.6-0.4-3.2-1.6c0,5.6,2,8.4,7.3,8.4c5.3,0,10.4-2.8,10.4-11.2
			c0-6.2-1.1-10-2.3-28.4c-2.4,7.8-5.8,15-9.7,22.7c1.6,0.7,2.8,2.2,2.8,4.2C309,102.9,306.9,105.9,303.7,105.9z"/>
		<path fill="#FFFFFF" d="M398.9,61.5L387,117.2c7.3-2.6,11.8-6.7,15.1-17.2h5c-4.7,15.8-13.8,20.4-21.2,22.4l-1.8,8.6
			c-3.6,17.2-13.7,20.4-21.6,20.4c-7.3,0-13.4-3.8-13.4-11.6c0-10.1,10.6-15.1,19.6-17.9l1.4-6.5c-5,5.6-10.3,6.7-14.4,6.7
			c-7.2,0-12.8-4.3-12.8-14.4c0-2.3,0.4-4.9,1-7.8l8.2-38.5h17.3l-8.6,40.8c-0.2,1-0.4,2-0.4,3c0,2.8,0.8,5.3,3.6,5.3
			c4.4,0,7.6-4.2,9.4-9.8l8.4-39.2H398.9z M359.8,142.1c2.5,0,5.4-3.6,7-10.7l0.7-3.5c-6.1,2.3-11.8,5.4-11.8,10.2
			C355.7,139.9,357.1,142.1,359.8,142.1z"/>
		<path fill="#FFFFFF" d="M437.2,57.8c1.4,31.1,2.6,35.8,2.6,43.7c0,15.6-14.2,20.8-24,20.8c-12.2,0-17.5-8-17.5-15.4
			c0-5.5,3.1-9.6,6.4-11.2c6.7-11.9,11-23.8,14.8-35.5L437.2,57.8z M407.9,105.9c-1.2,0-2.6-0.4-3.2-1.6c0,5.6,2,8.4,7.3,8.4
			c5.3,0,10.4-2.8,10.4-11.2c0-6.2-1.1-10-2.3-28.4c-2.4,7.8-5.8,15-9.7,22.7c1.6,0.7,2.8,2.2,2.8,4.2
			C413.2,102.9,411,105.9,407.9,105.9z"/>
	</g>
</g>
</svg>
