<?xml version="1.0" encoding="utf-8"?>
<!-- Generator: Adobe Illustrator 18.0.0, SVG Export Plug-In . SVG Version: 6.00 Build 0)  -->
<!DOCTYPE svg PUBLIC "-//W3C//DTD SVG 1.1//EN" "http://www.w3.org/Graphics/SVG/1.1/DTD/svg11.dtd">
<svg version="1.1" id="Capa_1" xmlns="http://www.w3.org/2000/svg" xmlns:xlink="http://www.w3.org/1999/xlink" x="0px" y="0px"
	 viewBox="0 0 435 116" enable-background="new 0 0 435 116" xml:space="preserve">
<g>
	<g>
		<path fill="#FFFFFF" d="M86,9.9C74.9,3.9,62.3,2,50.2,4.2l8.2,43.4c2.1-0.3,4.1,0,5.9,0.8L86,9.9z"/>
		<path fill="#FFFFFF" d="M49.5,59.4L5.3,59.9C5.7,71.8,10,83.5,18,93.1l33.5-28.8c-1-1.3-1.6-2.7-2-4.4
			C49.6,59.8,49.6,59.6,49.5,59.4z"/>
		<path fill="#FFFFFF" d="M16.8,24.4C9,34.4,5.2,46.3,5.3,58.3l44.2-0.5c0-1.9,0.6-3.7,1.6-5.3L16.8,24.4z"/>
		<path fill="#FFFFFF" d="M58.8,68.5l-7.2,43.6c11.9,1.8,24.3-0.3,35.1-6.4l-22.6-38c-0.7,0.3-1.5,0.6-2.3,0.7
			C60.9,68.5,59.8,68.6,58.8,68.5z"/>
		<path fill="#FFFFFF" d="M52.6,65.6L19.1,94.4c1.1,1.2,2.2,2.3,3.3,3.4c8,7.5,17.6,12.2,27.6,14l7.2-43.6
			C55.5,67.7,53.9,66.8,52.6,65.6z"/>
		<path fill="#FFFFFF" d="M48.6,4.5c-10.5,2.2-20.5,7.6-28.5,16c-0.8,0.9-1.6,1.7-2.3,2.6l34.2,28c1.3-1.5,2.9-2.6,4.8-3.2L48.6,4.5
			z"/>
	</g>
	<path fill="#FFFFFF" d="M100.3,71.1c6.2,1.4,12.4,7.6,19.9,7.6c1.6,0,3.3-0.2,5-0.9c-0.6,5.7-3,9.3-6.2,9.3
		c-8.5,0-15.9-13.4-26.4-13.4c-0.5,0-0.9,0-1.4,0.1l8.8-41c-5.1,2.1-8.3,6.6-8.3,12.9c0,3,0.8,3.5,0.8,4c-4.1,0-6.3-1.5-6.3-5.7
		c0-7.9,10.9-15.4,20.8-15.4c0.8,0,1.6,0.1,2.4,0.1L100.3,71.1z"/>
	<path fill="#FFFFFF" d="M131.3,51.6c0.2,0.1,0.5,0.1,0.7,0.1c2.7,0,6.6-1.8,9.1-3.6l0.5,1.6c-2.2,2.4-6.2,4.2-10.5,4.9
		c-0.9,10.9-6.9,17.8-14.1,17.8c-5.5,0-9.5-2.6-9.5-9.4c0-6.8,4-21,16.2-21C128.9,42.2,131.3,45.4,131.3,51.6z M126.2,54.9
		c-1.2-0.3-1.6-1.3-1.6-2.5c0-1.7,0.8-2.7,1.8-3.2c-0.1-2.5-0.7-3.4-2.2-3.4c-4.2,0-7.9,10.8-7.9,16.6c0,3.9,0.8,4.8,3,4.8
		C122.3,67.2,125.3,61.9,126.2,54.9z"/>
	<path fill="#FFFFFF" d="M148.9,33.3l-2,9.4h3.6l-0.5,2.4h-3.6l-3.8,17.8c-0.2,0.8-0.2,1.4-0.2,1.9c0,1.7,0.8,2.2,2.4,2.2
		c2.3,0,4.4-2.2,5.3-5.2h2.5c-3.4,9.6-9.2,10.9-12.4,10.9c-3.6,0-6.3-2.1-6.3-7.1c0-1.1,0.2-2.4,0.5-3.8l3.6-16.6h-2l0.5-2.4h2
		l1.8-8.2L148.9,33.3z"/>
	<path fill="#FFFFFF" d="M172.9,50.1c2.1-0.4,3.6-3,4.2-4.1h1.9c-1.2,2.5-3,6.2-6.1,7.9c-0.7,11.4-6.6,18.5-14.1,18.5
		c-5.5,0-9.5-2.6-9.5-9.4c0-6.8,3.8-21,16-21C170,42.2,172.5,44.9,172.9,50.1z M167.9,54.9c-0.9-0.4-1.4-1.2-1.4-2.7
		c0-1.6,0.7-2.6,1.7-3.1c-0.1-2.5-0.8-3.4-2.2-3.4c-4.2,0-7.7,10.8-7.7,16.6c0,3.9,0.8,4.8,3,4.8C164.1,67.2,167,61.9,167.9,54.9z"
		/>
	<path fill="#FFFFFF" d="M202.1,72.3l4.6-21.5c-3-1.4-5.3-1.9-7.9-2.1c-4.4,9.6-7.7,20.9-7.7,27c0,1.9,0.5,2.8,0.8,3.3
		c-3.2,0-7.9-0.1-7.9-6.3c0-5.3,3.6-15,8.7-24.1c-3.7,0.2-6.2,1.1-6.9,3.1c0.3,0,0.8,1,0.8,1.8c0,1.4-1.5,2.3-3.3,2.3
		c-2,0-3.7-1.1-3.7-3.4c0-4,5.1-7.3,12.1-7.3c0.8,0,1.8,0.1,3.1,0.2c6-9.5,13.7-17.5,20.6-17.5c1.4,0,3.3,0.2,4.7,0.8l-9.3,43.6
		H202.1z M210.6,32.1c-3.6,1.9-7.3,7.4-10.7,14c2.4,0.5,4.9,1.1,7.2,2.1L210.6,32.1z"/>
	<path fill="#FFFFFF" d="M233.4,47.8c-2.1,0-3.7,2.5-4.6,5.4l-4,19h-8.5l6.3-29.6h8.5l-0.7,3.1c2.5-2.8,5.1-3.3,6.9-3.3
		c3.8,0,6.6,2,6.6,6.7c0,4.8-2.8,12-2.8,15.3c0,1.5,0.6,2.5,2.4,2.5c2.6,0,3.7-2.1,5-5.2h2.5c-3.3,9.7-7.9,10.9-11,10.9
		c-5.1,0-7-3.3-7-6.7c0-4,2.7-11.3,2.7-15.1C235.6,48.9,234.8,47.8,233.4,47.8z"/>
	<path fill="#FFFFFF" d="M260.9,42.7l-4.3,20.1c-0.2,0.8-0.2,1.4-0.2,1.9c0,1.7,0.8,2.2,2.4,2.2c2.3,0,4.4-2.2,5.3-5.2h2.5
		c-3.4,9.6-9.2,10.9-12.4,10.9c-3.6,0-6.3-2.1-6.3-7.1c0-1.1,0.2-2.4,0.5-3.8l4-19H260.9z M258.3,30.1c2.6,0,4.7,2.1,4.7,4.7
		c0,2.6-2.1,4.7-4.7,4.7c-2.6,0-4.7-2.1-4.7-4.7C253.6,32.2,255.7,30.1,258.3,30.1z"/>
	<path fill="#FFFFFF" d="M293.7,47.8c-2.1,0-3.7,2.5-4.6,5.4l-4,19h-8.5l4.3-20.4c0.1-0.5,0.2-0.9,0.2-1.5c0-1.3-0.5-2.6-1.8-2.6
		c-2.3,0-3.9,2.5-4.8,5.5l-4,19H262l6.3-29.6h8.5l-0.7,3.1c2.5-2.8,5.1-3.4,7.2-3.4c3.1,0,5.4,1.4,6.1,5.1c2.8-4.4,6-5,8.2-5
		c3.8,0,6.6,2,6.6,6.7c0,4.8-2.8,12-2.8,15.3c0,1.5,0.6,2.5,2.4,2.5c2.6,0,3.7-2.1,5-5.2h2.5c-3.3,9.7-7.9,10.9-11,10.9
		c-5.1,0-7-3.3-7-6.7c0-4,2.7-11.3,2.7-15.1C295.9,48.9,295.2,47.8,293.7,47.8z"/>
	<path fill="#FFFFFF" d="M337.1,42.7l-4.3,20.1c-0.2,0.8-0.2,1.4-0.2,1.9c0,1.7,0.8,2.5,2.4,2.5c2.3,0,3.9-2.6,4.8-5.6h2.5
		c-3.4,9.6-8.7,10.9-11.9,10.9c-3.3,0-5.4-1.9-5.8-5.4c-1.8,2.7-4.6,5.4-8.8,5.4c-4,0-7.9-2.5-7.9-9.5c0-8,4.9-20.7,15.2-20.7
		c3.4,0,4.8,1.3,4.8,3v0.4l0.7-3.1H337.1z M316.7,62.3c0,4.6,1.9,4.6,3,4.6c1.7,0,4.2-1.8,4.9-5.2l2.8-13.4c0-0.7-0.5-2.2-2.4-2.2
		C320,46.1,316.7,56.7,316.7,62.3z"/>
	<path fill="#FFFFFF" d="M354.9,30.8l-6.8,32c-0.2,0.8-0.2,1.4-0.2,1.9c0,1.7,0.8,2.2,2.4,2.2c2.3,0,4.4-2.2,5.3-5.2h2.5
		c-3.4,9.6-9.2,10.9-12.4,10.9c-3.6,0-6.3-2.1-6.3-7.1c0-1.1,0.2-2.4,0.5-3.8l6.3-29.6L354.9,30.8z"/>
	<path fill="#FFFFFF" d="M368.2,42.7l-4.3,20.1c-0.2,0.8-0.2,1.4-0.2,1.9c0,1.7,0.8,2.2,2.4,2.2c2.3,0,4.4-2.2,5.3-5.2h2.5
		c-3.4,9.6-9.2,10.9-12.4,10.9c-3.6,0-6.3-2.1-6.3-7.1c0-1.1,0.2-2.4,0.5-3.8l4-19H368.2z M365.5,30.1c2.6,0,4.7,2.1,4.7,4.7
		c0,2.6-2.1,4.7-4.7,4.7c-2.6,0-4.7-2.1-4.7-4.7C360.8,32.2,362.9,30.1,365.5,30.1z"/>
	<path fill="#FFFFFF" d="M386,33.3l-2,9.4h3.6l-0.5,2.4h-3.6l-3.8,17.8c-0.2,0.8-0.2,1.4-0.2,1.9c0,1.7,0.8,2.2,2.4,2.2
		c2.3,0,4.4-2.2,5.3-5.2h2.5c-3.4,9.6-9.2,10.9-12.4,10.9c-3.6,0-6.3-2.1-6.3-7.1c0-1.1,0.2-2.4,0.5-3.8l3.6-16.6h-2l0.5-2.4h2
		l1.8-8.2L386,33.3z"/>
	<path fill="#FFFFFF" d="M428.4,40.9c0.7,15.3,1.3,17.6,1.3,21.5c0,7.7-5.6,10.2-10.4,10.2c-7,0-8.2-4.3-8.2-7.9
		c0-3.5,2.2-5.6,4.3-5.6c2,0,3.1,0.8,3.1,2.5c0,1.4-1.3,2.7-2.8,2.7c-0.6,0-1.3-0.2-1.6-0.8c0,2.8,1.2,4.4,3.4,4.4
		c2.6,0,3.7-1.4,3.7-5.5c0-3.3-0.7-5.1-1.3-16.1c-2.9,4.4-6.3,7-9.9,8.2c-0.8,11.1-6.7,18-14,18c-5.5,0-9.5-2.6-9.5-9.4
		c0-6.8,3.8-21,16-21c5,0,7.5,3.2,7.6,9.3c3-0.2,6.3-3.6,9.6-9.4L428.4,40.9z M404.9,54.9c-0.9-0.4-1.4-1.2-1.4-2.7
		c0-1.6,0.7-2.6,1.7-3.1c-0.1-2.5-0.8-3.4-2.2-3.4c-4.2,0-7.7,10.8-7.7,16.6c0,3.9,0.8,4.8,3,4.8C401.2,67.2,404.1,61.9,404.9,54.9z
		"/>
	<path fill="#FFFFFF" d="M378.2,97.5c1.3,0,2.4,1.1,2.4,2.4s-1.1,2.3-2.4,2.3c-1.3,0-2.3-1-2.3-2.3S376.9,97.5,378.2,97.5z"/>
	<path fill="#FFFFFF" d="M391.4,92.2c0-0.7-0.3-1.2-0.8-1.2c-1.9,0-3.8,5.4-3.8,8.7c0,2,0.7,2.5,2.1,2.5c2.3,0,3.8-1.3,5.2-3h1
		c-1.7,2.7-4.2,5.5-8.1,5.5c-2.8,0-4.6-1.4-4.6-4.7c0-3.4,2-10.5,8-10.5c2.6,0,3.3,1.4,3.3,2.7c0,1.5-0.7,2.2-1.6,2.2
		c-0.3,0-0.7-0.1-1-0.4C391.3,93.3,391.4,92.7,391.4,92.2z"/>
	<path fill="#FFFFFF" d="M406.6,94.2c0.1,0.1,0.2,0.1,0.3,0.1c1.4,0,3.3-0.9,4.6-1.8l0.3,0.8c-1.1,1.2-3.1,2.1-5.2,2.5
		c-0.5,5.5-3.4,8.9-7.1,8.9c-2.8,0-4.7-1.3-4.7-4.7c0-3.4,2-10.5,8.1-10.5C405.4,89.5,406.6,91.1,406.6,94.2z M404.1,95.8
		c-0.6-0.1-0.8-0.7-0.8-1.2c0-0.8,0.4-1.4,0.9-1.6c-0.1-1.2-0.4-1.7-1.1-1.7c-2.1,0-3.9,5.4-3.9,8.3c0,2,0.4,2.4,1.5,2.4
		C402.1,102,403.6,99.3,404.1,95.8z"/>
	<path fill="#FFFFFF" d="M422.9,92.3c-1.1,0-1.9,1.2-2.3,2.7l-2,9.5h-4.3l2.2-10.2c0.1-0.2,0.1-0.5,0.1-0.7c0-0.7-0.2-1.3-0.9-1.3
		c-1.2,0-2,1.3-2.4,2.8l-2,9.5H407l3.1-14.8h4.3l-0.3,1.5c1.2-1.4,2.6-1.7,3.6-1.7c1.6,0,2.7,0.7,3,2.5c1.4-2.2,3-2.5,4.1-2.5
		c1.9,0,3.3,1,3.3,3.3c0,2.4-1.4,6-1.4,7.6c0,0.7,0.3,1.2,1.2,1.2c0.5,0,0.8-0.1,1-0.2c-0.3,2.1-1.7,3-3.3,3c-2.3,0-3-1.7-3-3.3
		c0-2,1.3-5.7,1.3-7.5C423.9,92.8,423.6,92.3,422.9,92.3z"/>
</g>
</svg>
