<?xml version="1.0" encoding="utf-8"?>
<!-- Generator: Adobe Illustrator 18.0.0, SVG Export Plug-In . SVG Version: 6.00 Build 0)  -->
<!DOCTYPE svg PUBLIC "-//W3C//DTD SVG 1.1//EN" "http://www.w3.org/Graphics/SVG/1.1/DTD/svg11.dtd">
<svg version="1.1" id="Capa_1" xmlns="http://www.w3.org/2000/svg" xmlns:xlink="http://www.w3.org/1999/xlink" x="0px" y="0px"
	 viewBox="0 0 350 395" enable-background="new 0 0 350 395" xml:space="preserve">
<g>
	<path fill="#01477C" d="M175,57.5c-3.2,0-5.8-2.6-5.8-5.8V28.3c0-3.2,2.6-5.8,5.8-5.8s5.8,2.6,5.8,5.8v23.3
		C180.8,54.9,178.2,57.5,175,57.5z"/>
	<rect x="5.8" y="51.7" fill="#BBC0C4" width="338.3" height="233.3"/>
	<path fill="#01477C" d="M175,360.8c-3.2,0-5.8-2.6-5.8-5.8v-70c0-3.2,2.6-5.8,5.8-5.8s5.8,2.6,5.8,5.8v70
		C180.8,358.2,178.2,360.8,175,360.8z"/>
	<path fill="#01477C" d="M256.7,372.5c-1.5,0-3-0.6-4.1-1.7l-81.7-81.7c-2.3-2.3-2.3-6,0-8.2c2.3-2.3,6-2.3,8.2,0l81.7,81.7
		c2.3,2.3,2.3,6,0,8.2C259.7,371.9,258.2,372.5,256.7,372.5z"/>
	<path fill="#01477C" d="M93.3,372.5c-1.5,0-3-0.6-4.1-1.7c-2.3-2.3-2.3-6,0-8.2l81.7-81.7c2.3-2.3,6-2.3,8.2,0c2.3,2.3,2.3,6,0,8.2
		l-81.7,81.7C96.3,371.9,94.8,372.5,93.3,372.5z"/>
	<g>
		<path fill="#FFFFFF" d="M134.2,115.8H46.7c-3.2,0-5.8-2.6-5.8-5.8c0-3.2,2.6-5.8,5.8-5.8h87.5c3.2,0,5.8,2.6,5.8,5.8
			C140,113.2,137.4,115.8,134.2,115.8z"/>
		<path fill="#FFFFFF" d="M99.2,98.3H46.7c-3.2,0-5.8-2.6-5.8-5.8s2.6-5.8,5.8-5.8h52.5c3.2,0,5.8,2.6,5.8,5.8S102.4,98.3,99.2,98.3
			z"/>
		<path fill="#FFFFFF" d="M134.2,133.3H46.7c-3.2,0-5.8-2.6-5.8-5.8s2.6-5.8,5.8-5.8h87.5c3.2,0,5.8,2.6,5.8,5.8
			S137.4,133.3,134.2,133.3z"/>
		<path fill="#FFFFFF" d="M70,244.2c-1.5,0-3-0.6-4.1-1.7c-2.3-2.3-2.3-6,0-8.2l73.5-73.5c2.3-2.3,6-2.3,8.2,0s2.3,6,0,8.2
			l-73.5,73.5C73,243.6,71.5,244.2,70,244.2z"/>
		<path fill="#FFFFFF" d="M196,223.2c-1.5,0-3-0.6-4.1-1.7L139.4,169c-2.3-2.3-2.3-6,0-8.2s6-2.3,8.2,0l52.5,52.5
			c2.3,2.3,2.3,6,0,8.2C199,222.6,197.5,223.2,196,223.2z"/>
		<path fill="#FFFFFF" d="M196,223.2c-1.5,0-3-0.6-4.1-1.7c-2.3-2.3-2.3-6,0-8.2l84-84c2.3-2.3,6-2.3,8.2,0c2.3,2.3,2.3,6,0,8.2
			l-84,84C199,222.6,197.5,223.2,196,223.2z"/>
		<path fill="#FFFFFF" d="M280,180c-3.2,0-5.8-2.6-5.8-5.8v-40.8c0-3.2,2.6-5.8,5.8-5.8c3.2,0,5.8,2.6,5.8,5.8v40.8
			C285.8,177.4,283.2,180,280,180z"/>
		<path fill="#FFFFFF" d="M280,139.2h-40.8c-3.2,0-5.8-2.6-5.8-5.8s2.6-5.8,5.8-5.8H280c3.2,0,5.8,2.6,5.8,5.8
			S283.2,139.2,280,139.2z"/>
	</g>
</g>
</svg>
