<?xml version="1.0" encoding="utf-8"?>
<!-- Generator: Adobe Illustrator 18.0.0, SVG Export Plug-In . SVG Version: 6.00 Build 0)  -->
<!DOCTYPE svg PUBLIC "-//W3C//DTD SVG 1.1//EN" "http://www.w3.org/Graphics/SVG/1.1/DTD/svg11.dtd">
<svg version="1.1" id="Capa_1" xmlns="http://www.w3.org/2000/svg" xmlns:xlink="http://www.w3.org/1999/xlink" x="0px" y="0px"
	 viewBox="0 0 458 439" enable-background="new 0 0 458 439" xml:space="preserve">
<g>
	<rect x="187.3" y="324.4" fill="#9E9E9E" width="83.4" height="69.5"/>
	<circle fill="#A6DAE9" cx="229" cy="344.1" r="20.1"/>
	<path fill="#FFFFFF" d="M229,364.2c-10.4,0-19-8-20-18.2c-0.1,0.6-0.1,1.2-0.1,1.9c0,11.1,9,20.1,20.1,20.1s20.1-9,20.1-20.1
		c0-0.6,0-1.2-0.1-1.9C248,356.2,239.4,364.2,229,364.2z"/>
	<path fill="#463647" d="M451.7,43.3H6.3c-1.6,0-3,1.3-3,3V336h451.3V46.2C454.6,44.6,453.3,43.3,451.7,43.3z"/>
	<rect x="3.4" y="332.7" fill="#281D28" width="451.3" height="3.2"/>
	<path fill="#5F5160" d="M451.7,43.3H6.3c-1.6,0-3,1.3-3,3V48c0-1.6,1.3-3,3-3h445.4c1.6,0,3,1.3,3,3v-1.8
		C454.6,44.6,453.3,43.3,451.7,43.3z"/>
	<path fill="#9E9E9E" d="M304,394H154c-3.8,0-6.9,3.6-6.9,8.1v3H311v-3C310.9,397.6,307.8,394,304,394z"/>
	<rect x="8.5" y="48.4" fill="#15B0BF" width="441.1" height="268.5"/>
	<circle fill="#FFFFFF" cx="440.4" cy="326.4" r="4.8"/>
	<circle fill="#FFFFFF" cx="424.8" cy="326.4" r="1.4"/>
	<circle fill="#FFFFFF" cx="411.5" cy="326.4" r="1.4"/>
	<circle fill="#FFFFFF" cx="398.2" cy="326.4" r="1.4"/>
	<circle fill="#FFFFFF" cx="384.8" cy="326.4" r="1.4"/>
	<g>
		<rect x="3.4" y="426.8" fill="#281D28" width="451.3" height="11.2"/>
	</g>
	<path fill="#463647" d="M371.4,378.3h-15.8c-13.7,0-24.7,11.1-24.7,24.7v2h65.2v-2C396.1,389.4,385,378.3,371.4,378.3z"/>
	<g>
		<rect x="20.2" y="423.5" fill="#463647" width="18.9" height="3.3"/>
		<rect x="50.9" y="423.5" fill="#463647" width="18.9" height="3.3"/>
		<rect x="81.6" y="423.5" fill="#463647" width="18.9" height="3.3"/>
		<rect x="112.2" y="423.5" fill="#463647" width="18.9" height="3.3"/>
		<rect x="142.9" y="423.5" fill="#463647" width="18.9" height="3.3"/>
		<rect x="173.6" y="423.5" fill="#463647" width="18.9" height="3.3"/>
		<rect x="204.2" y="423.5" fill="#463647" width="18.9" height="3.3"/>
		<rect x="234.9" y="423.5" fill="#463647" width="18.9" height="3.3"/>
		<rect x="265.5" y="423.5" fill="#463647" width="18.9" height="3.3"/>
		<rect x="296.2" y="423.5" fill="#463647" width="18.9" height="3.3"/>
		<rect x="326.9" y="423.5" fill="#463647" width="18.9" height="3.3"/>
		<rect x="357.5" y="423.5" fill="#463647" width="18.9" height="3.3"/>
		<rect x="388.2" y="423.5" fill="#463647" width="18.9" height="3.3"/>
		<rect x="418.9" y="423.5" fill="#463647" width="18.9" height="3.3"/>
	</g>
	<g>
		<ellipse fill="#1695A4" cx="229" cy="275.8" rx="150.2" ry="18.7"/>
		<polygon fill="#995F13" points="82.6,114.7 219.8,0.9 357,114.7 357,275.8 82.6,275.8 		"/>
		<path fill="#FFFFFF" d="M312.2,211.2H127.3c-1.4,0-2.5-1.1-2.5-2.5V26.9c0-1.4,1.1-2.5,2.5-2.5h184.9c1.4,0,2.5,1.1,2.5,2.5v181.9
			C314.7,210.1,313.6,211.2,312.2,211.2z"/>
		<path fill="#FFFFFF" d="M312.2,24.3H127.3c-1.4,0-2.5,1.1-2.5,2.5v1.9c0-1.4,1.1-2.5,2.5-2.5h184.9c1.4,0,2.5,1.1,2.5,2.5v-1.9
			C314.7,25.5,313.6,24.3,312.2,24.3z"/>
		<g>
			<rect x="207.3" y="48.3" fill="#D1D3D4" width="83.5" height="10"/>
			<rect x="207.3" y="68" fill="#D1D3D4" width="83.5" height="10"/>
			<rect x="148.8" y="48.3" fill="#EA6552" width="49.3" height="49.3"/>
			<rect x="207.3" y="87.6" fill="#D1D3D4" width="83.5" height="10"/>
			<rect x="148.8" y="107.3" fill="#D1D3D4" width="142" height="10"/>
			<rect x="148.8" y="146.7" fill="#D1D3D4" width="142" height="10"/>
			<rect x="148.8" y="127" fill="#D1D3D4" width="142" height="10"/>
			<rect x="148.8" y="166.3" fill="#D1D3D4" width="142" height="10"/>
			<rect x="148.8" y="186" fill="#D1D3D4" width="142" height="10"/>
		</g>
		<polygon fill="#FACB34" points="82.6,114.7 196.4,195.3 82.6,275.8 		"/>
		<polygon fill="#F8DB1D" points="82.6,114.7 82.6,116.3 194.1,195.3 82.6,274.2 82.6,275.8 196.4,195.3 		"/>
		<polygon fill="#FACB34" points="357,114.7 243.2,195.3 357,275.8 		"/>
		<polygon fill="#F8DB1D" points="357,114.7 357,116.3 245.4,195.3 357,274.2 357,275.8 243.2,195.3 		"/>
		<polygon fill="#F8A81D" points="243.3,195.3 196.4,195.3 196.4,195.2 82.6,275.8 357,275.8 		"/>
	</g>
	<path fill="#281D28" d="M398.2,405.1h-69.3v-4.4c0-1.2,0.9-2.1,2.1-2.1h65.1c1.2,0,2.1,0.9,2.1,2.1L398.2,405.1L398.2,405.1z"/>
</g>
</svg>
