<?xml version="1.0" encoding="utf-8"?>
<!-- Generator: Adobe Illustrator 18.0.0, SVG Export Plug-In . SVG Version: 6.00 Build 0)  -->
<!DOCTYPE svg PUBLIC "-//W3C//DTD SVG 1.1//EN" "http://www.w3.org/Graphics/SVG/1.1/DTD/svg11.dtd">
<svg version="1.1" id="Capa_1" xmlns="http://www.w3.org/2000/svg" xmlns:xlink="http://www.w3.org/1999/xlink" x="0px" y="0px"
	 viewBox="0 0 350 395" enable-background="new 0 0 350 395" xml:space="preserve">
<ellipse fill="#618F92" cx="163.1" cy="377.8" rx="140.9" ry="11"/>
<g id="XMLID_4_">
	<path fill="#2A393D" d="M143.4,165.3c0.4,7.6-0.8,15.6-4,22.2c-3.7-1-7.3-2.9-10.8-4.7c3-5.2,4.7-11.4,5-17.7
		C137.1,165.5,139.9,164.9,143.4,165.3z"/>
	<path id="XMLID_7_" fill="#F4EDB6" d="M159.5,152.3c0.1,7.2-1.6,15.2-7.8,20.6c0,0-10.3-2.4-23.9-4.8c-20.8-3.7-49.2-7.3-60.7-2.6
		l6.4-32.8l5.9-30.5c0,0,20.5,17.8,54.6,28.3c7,2.2,14.6,4,22.8,5.4C156.8,136,159.4,143.5,159.5,152.3z"/>
	<path id="XMLID_9_" fill="#E2DBA8" d="M159.5,152.3c-29.6-1.1-58.9-7.8-86.1-19.5l5.9-30.5c0,0,20.5,17.8,54.6,28.3
		c7,2.2,14.6,4,22.8,5.4C156.8,136,159.4,143.5,159.5,152.3z"/>
	<path fill="#384E54" d="M53.2,162.2c0.2,3.3,0.5,6.8,2.7,9.6c2.2,2.9,6.7,5,11.2,4.3c5.6-0.9,8.7-5.3,10.9-9.2
		c8.7-15.2,15.2-31.1,15.6-47.4c0.2-7.1,1.6-23.6-7-28.1c-11.5-6.1-20.2,11.9-22.7,17.8C56.3,126.6,52.3,144.3,53.2,162.2z"/>
	<path id="XMLID_13_" fill="#223234" d="M90.7,120.8c-0.1,1.9-0.3,3.8-0.6,5.7c0,0,0,0,0,0c-1.1,8.1-3.6,16-6.9,23.8
		c-2.1,4.9-4.6,9.7-7.2,14.5c-2,3.5-4.7,7.6-9.5,8.1c-3.8,0.5-7.5-1.7-9.3-4.5c-1.7-2.8-1.9-6.1-2-9.2c-0.1-17,3.9-33.5,10.7-49.5
		c2.3-5.4,10.2-21.9,19.7-15.7C92.8,98.5,91.1,114.1,90.7,120.8z"/>
	<path id="XMLID_16_" fill="#384E54" d="M151.7,172.9c0,0-10.3-2.4-23.9-4.8c5.5-11.6,7.7-24.8,6.3-37.5c7,2.2,14.6,4,22.8,5.4
		C156.8,136,165.6,160.9,151.7,172.9z"/>
	<path fill="#384E54" d="M148,167.5c0.4,7.6-0.8,15.6-4,22.2c-3.7-1-7.3-2.9-10.8-4.7c3-5.2,4.7-11.4,5-17.7
		C141.7,167.7,144.5,167.1,148,167.5z"/>
	<path id="XMLID_20_" fill="#456168" d="M156.5,145.9c0.1-2.6,0.1-5.1-0.6-7.6c-6.8-0.8-13.3-2.1-20-3.6c0.5,2.8,0.5,5.7-0.1,8.5
		C142.8,144.4,149.5,144.8,156.5,145.9z"/>
	<path id="XMLID_23_" fill="#456168" d="M156.3,150.8c0.1-0.9,0.5-1.9,0.6-2.8c-7.2-0.8-14.2-1.8-21.3-2.5c0,1-0.1,1.9-0.1,2.9
		C142.4,149.1,149.4,149.5,156.3,150.8z"/>
	<path id="XMLID_26_" fill="#F0E9C3" d="M90.2,126.5C90.2,126.5,90.2,126.5,90.2,126.5c-1.1,8.1-3.6,16.1-6.9,23.8
		c-5.2-3.4-10.3-6.3-15.4-9.6c1-5.3,2.8-10,3.6-15.7c6.2,0,12.6,0.4,18.8,1.1C90.2,126.2,90.2,126.3,90.2,126.5z"/>
	<path id="XMLID_29_" fill="#D4CEAD" d="M83.1,147.5c1.6-2.3,2.2-5.2,2.8-7.9c-6.2-1.2-10.1-2.4-16.1-4.6c-0.4,1.6-0.7,3.2-1.3,4.7
		C73.1,142.8,78.1,145.4,83.1,147.5z"/>
	<path id="XMLID_30_" fill="#1A2526" d="M144.1,165.4c-1.4-0.3-2.9-0.4-4.2,0.1c-0.9,0.3-0.7,1.5,0.2,1.6c1.5,0.2,3,0.3,4.6,0.4
		c0.6,0.1,1.7,0.3,1.8-0.6C146.6,166,144.7,165.6,144.1,165.4z"/>
	<path id="XMLID_31_" fill="#1A2526" d="M147,161.3c-2-0.5-4.6-0.8-6.5-0.2c-0.8,0.2-1,1.6,0,1.8c1,0.2,2,0.1,3,0.1
		c1.1,0.1,2.1,0.2,3.2,0.4C147.9,163.5,148.1,161.6,147,161.3z"/>
	<path id="XMLID_32_" fill="#97E3E6" d="M41.7,129.9c-2.9-0.7-4.7,0.2-7.5,0.8c-1.7,0.4-3.4,0.6-5.1,0.7c1.2-1.2,2.4-2.2,3.8-3.3
		c2.5-1.8-0.3-4.6-2.8-4.2c-5,0.6-9.9,1.3-14.9,2c-3.5,0.5-6.5,0.5-8.6,3.1c-0.3,0.4,0,0.9,0.4,1.2c2.9,1.9,6.3,0.9,9.8,0.5
		c2.1-0.3,4.1-0.5,6.2-0.8c-0.8,0.9-1.7,1.9-2.5,2.9c-1,1.3-0.1,3.7,1.8,4c5.8,0.7,17.5,1.1,20.6-4.3
		C43.5,131.5,43,130.2,41.7,129.9z"/>
	<path id="XMLID_33_" fill="#97E3E6" d="M50.4,108.9c-2.5-2.5-5.4-4.6-8.4-6.7c2.3-1.1,4.6-2.5,3.7-5.1c-1.7-4.8-8.2-10.6-12.7-12.6
		c-1.5-0.7-3,1-1.8,2.3c2.4,2.6,5.3,4.8,7.7,7.5c0.7,0.8,3.4,4,3.5,3.8c0-0.2-4.6,1.7-5,1.9c-1.7,0.7-1.9,2.6-0.5,3.7
		c3.7,2.7,7.5,5.7,11.8,7.6C50.1,111.9,51.7,110.2,50.4,108.9z"/>
	<path id="XMLID_34_" fill="#97E3E6" d="M38.7,160.3c-2.1,1.1-4.1,2.4-6.1,3.8c0.2-1.7,0.4-3.3,0.8-5c0.3-1.6-1.4-3.2-2.9-2.2
		c-7.1,4.4-14.5,8.5-21.3,13.4c-1.8,1.3-0.3,4,1.8,3c6.1-3.2,12-7,17.8-10.6c-0.2,1.8-0.4,3.6-0.5,5.5c-0.1,1.5,1.8,2.6,3,1.7
		c3.2-2.2,6.5-4.3,9.5-6.8C42.3,161.7,40.3,159.4,38.7,160.3z"/>
</g>
<g id="XMLID_35_">
	<path id="XMLID_38_" fill="#EDE9C4" d="M74.1,61.9c0.9,8.9,9.9,16.2,18.8,15.3c8.9-0.9,16.2-9.8,15.3-18.7
		C106.1,36.6,71.9,40,74.1,61.9z"/>
	<path id="XMLID_41_" fill="#C2494C" d="M93.5,70c-2.5-0.3-4.9-0.9-7-2.2c-2.1-1.3-3.8-3.4-4.2-5.8c-0.5-2.4,0.5-5.1,2.6-6.5
		c2.1-1.3,5.2-0.9,6.6,1.1c1-1.1,2.1-2.1,3.5-2.6c1.4-0.4,3-0.3,4.1,0.7c1.3,1.2,1.4,3.3,1.1,5.1C99.4,63.8,96.6,67.4,93.5,70z"/>
</g>
<g id="XMLID_42_">
	<path fill="#EDE9C4" d="M200.2,40.2c-7.2,3.7-10.3,13.7-6.6,20.9c3.7,7.2,13.6,10.4,20.8,6.7C232.1,58.7,217.8,31,200.2,40.2z"/>
	<path id="XMLID_46_" fill="#627A80" d="M216,54.9c0-1.3-0.1-2.6-0.7-3.7c-0.6-1.1-2.2-1.8-3.3-1.3c0.6-1.5,0.8-3.2,0.6-4.9
		c-0.2-1.3-1.1-2.8-2.4-2.8c-0.8,0-1.4,0.6-1.8,1.2c-0.4,0.6-0.6,1.4-0.9,2.1c-0.9,2.2-2,4.8-4.6,5c0-0.2-0.1-0.4-0.1-0.4
		c-0.2-0.2-0.7-0.1-0.9-0.1c-0.7,0-1.3,0.1-2,0.2c-0.6,0.1-1.4-0.1-2,0.2c-0.7,0.3-0.4,2.4-0.4,3.1c0,1.3,0.1,2.6,0.3,4
		c0.1,0.6,0.1,1.1,0.2,1.7c0.1,0.5,0.1,1.4,0.3,1.9c0.3,0.7,0.8,0.7,1.5,0.6c1.2,0,2.6,0.1,3.8-0.3c0.3-0.1,0.4-0.2,0.5-0.3
		c0-0.1,0.1-0.4,0.1-0.5c3.1-0.2,6.1-0.6,9.1-1.4c0.7-0.2,1.4-0.4,1.9-0.9C216,57.5,216,56.1,216,54.9z"/>
</g>
<path fill="#E0F95A" d="M150.2,92.6c-0.5-0.2-1.1-0.3-1.7-0.5c0-0.2,0-0.4,0-0.5c0-2.3,0.1-4.7,0.2-7c1.5,1.1,2.5,4.3,3,5.5
	c0.6,1.4,3,1.4,3.1-0.3c0.1-3-1.3-6.8-4.6-8.1c-0.5-0.2-1-0.4-1.5-0.4c0-1.3-0.1-2.7-0.3-4c0-0.3-0.7-0.3-0.8,0
	c-0.4,1.3-0.6,2.6-0.8,3.9c-2.2,0.2-4.2,1.4-5.2,3.3c-1.6,3.1-1.4,7.5,1.8,9.7c0.5,0.3,1.5,0.7,2.7,1.1c-0.1,1.2-0.1,2.4-0.1,3.6
	c-1.3-0.6-2.6-1.5-3.1-1.9c-0.8-0.5-2.1-0.1-2.3,0.7c-0.8,2.9,2.3,4.9,5.7,5.4c0.1,0.9,0.3,1.9,0.5,2.7c0.2,0.6,1.3,0.7,1.4,0.1
	c0.2-0.9,0.3-1.8,0.3-2.7c2.8-0.1,5.4-1.2,5.8-3.7C154.9,96.5,153.5,93.8,150.2,92.6z M145.5,86c0.4-0.6,0.7-1.1,1.1-1.3
	c-0.1,2.2-0.2,4.5-0.2,6.7C144.2,89.9,144.3,87.9,145.5,86z M150.2,98.3c-0.2,0.8-0.7,1.2-1.4,1.3c0-1.1-0.1-2.2-0.1-3.2
	C149.7,96.9,150.4,97.5,150.2,98.3z"/>
<path fill="#B1D133" d="M162.6,66.7c-0.4,0-0.8,0-1.1,0c0-0.1-0.1-0.2-0.1-0.3c-0.4-1.5-0.7-3-1.1-4.5c1.1,0.4,2.3,2.3,2.8,3
	c0.6,0.8,2.1,0.4,1.9-0.7c-0.4-1.9-2-4-4.3-4.4c-0.3-0.1-0.7-0.1-1,0c-0.2-0.8-0.5-1.7-0.8-2.5c-0.1-0.2-0.5-0.1-0.5,0.1
	c0,0.9,0.1,1.7,0.2,2.6c-1.4,0.5-2.4,1.6-2.7,3c-0.5,2.2,0.4,5,2.8,5.8c0.4,0.1,1.1,0.2,1.9,0.2c0.2,0.8,0.3,1.5,0.5,2.3
	c-0.9-0.2-1.9-0.5-2.3-0.7c-0.6-0.2-1.3,0.3-1.3,0.9c0,2,2.3,2.7,4.5,2.5c0.2,0.6,0.5,1.1,0.8,1.6c0.2,0.3,0.9,0.2,0.9-0.2
	c0-0.6-0.1-1.2-0.2-1.7c1.8-0.5,3.2-1.7,3-3.3C166.2,68.4,164.9,66.9,162.6,66.7z M158.6,63.3c0.1-0.5,0.3-0.8,0.5-1
	c0.3,1.4,0.7,2.9,1,4.2C158.4,66,158.1,64.7,158.6,63.3z M163.6,70.3c0,0.6-0.3,0.9-0.7,1c-0.2-0.7-0.4-1.4-0.6-2
	C163,69.4,163.6,69.7,163.6,70.3z"/>
<g id="XMLID_47_">
	<path fill="#F4EDB6" d="M174.8,16.6c0.2-1.7,0.4-3.6-0.6-4.9c-0.9-1.2-2.5-1.7-4-2c-8.6-2-17.1-3.6-26-3.4c-1.4,0-2.9,0.1-4.1,0.9
		c-1.6,1.1-2.1,3.2-2.4,5.1c-0.9,4.7-4.6,12.7-0.6,16.9c0,0,0,0,0,0c2.5,2.5,9,2.7,12.3,3.2c3.2,0.5,6.3,0.8,9.5,1.1
		c0.4,2.6,2.4,4.9,4.9,5.5c-0.4-1.6-0.6-3.3-0.3-5c0,0,0.1,0,0.1,0c3.3,0.4,6.1,0.6,8.3-2.3C174.8,27.8,174.2,21.1,174.8,16.6z"/>
	<path fill="#E2DBA8" d="M153.1,20.8c-1.9-2-5.3-1.9-7.8-2.1c-3.4-0.4-6.8-0.9-10.2-1.4c-3.5-0.5-6.6-1.6-9.8,0.7
		c-3.3,2.5-3.1,6.5-3.8,10.2c-0.7,3.5-0.9,7.4,1.9,10c1.6,1.3,3.8,1.7,5.9,1.9c1.8,0.2,3.6,0.6,5.4,0.9c-0.2,1.3-0.7,2.6-1.3,3.8
		c2.2-0.1,4.3-1.4,5.4-3.3c0.5,0,1,0.1,1.5,0.1c3.1,0,7.2,1,10-0.6c0.8-0.5,1.5-1.2,2-2c1.7-2.8,1.6-6.2,2.2-9.3
		C155.2,26.7,155.5,23.2,153.1,20.8z"/>
	<path id="XMLID_52_" fill="#384E54" d="M144.8,25.7c-5.4-1-11.7-2.2-17.1-1.2c-0.9,0.2-0.9,1.6,0,1.8c5.3,1.3,11,1.2,16.4,2.1
		C145.8,28.7,146.6,26,144.8,25.7z"/>
	<path id="XMLID_53_" fill="#384E54" d="M133.5,30.4c-2.1,0-4.2-0.1-6.2,0.2c-0.8,0.1-0.8,1.5,0,1.6c2.1,0.3,4.1,0.2,6.2,0.2
		C134.8,32.5,134.8,30.4,133.5,30.4z"/>
	<path id="XMLID_54_" fill="#384E54" d="M169.7,16.1c-5.1-0.9-10.5-1.6-15.8-1.1c-1.2,0.1-1.2,1.8,0,1.9c5.1,0.3,10.1,0.5,15.2,1.3
		C170.5,18.4,171.1,16.3,169.7,16.1z"/>
	<path id="XMLID_55_" fill="#384E54" d="M169.7,21.3c-1.4-0.5-3-0.5-4.5-0.6c-1.5-0.1-2.9-0.3-4.4,0c-0.7,0.1-0.5,1,0,1.2
		c1.3,0.5,2.7,0.7,4.1,0.8c1.5,0.2,3.1,0.5,4.6,0.3C170.5,23,170.8,21.7,169.7,21.3z"/>
	<path id="XMLID_56_" fill="#384E54" d="M158.3,20.1c-0.7,0.1-1.3,0.1-2-0.3c-0.7-0.4-1.6,0.6-0.9,1.2c0.9,0.7,2,1.1,3.1,0.8
		C159.5,21.5,159.3,19.9,158.3,20.1z"/>
</g>
<g id="XMLID_57_">
	<path fill="#1E2A2D" d="M170.7,203.9c-0.9-1.1-2.8-1.5-3.8-0.4c-2.2,2.2-2.5,4.8-3.6,7.7c-1.2,3.3-3.2,6.5-5.7,9
		c-4.9,4.8-15.1,8.5-21.5,4.4c-5.6-3.6-5.3-12.7-4.6-18.4c0.9-7.3,6.5-14.7,6.2-22c-0.1-1.4-0.6-2.8-1.8-3.5c-1.7-1.1-4-0.3-5.7,0.8
		c-8.7,5.7-9.7,19.7-9.8,29c-0.1,9.4,2.7,20.5,12.3,24.5c9.5,3.9,21.7,0.5,29.3-5.8C167.6,224.3,176.7,211.2,170.7,203.9z"/>
	<path id="XMLID_61_" fill="#384E54" d="M177.8,91.7c-0.2,0.2-0.4,0.4-0.6,0.5c-4.7,4.8-5.8,12.6-6.3,19c-0.7,9.3-1,18.7-1.5,28
		c-1.9,34.8-3.8,69.6-5.7,104.4c-0.7,12.5-1.4,24.9-2.1,37.4c-0.5,9.3-3.1,19.5,0.1,28.6c3.1,8.9,8.9,10.3,17.3,11.2
		c16.1,1.7,32.2,3.3,48.2,5c13.7,1.4,27.5,2.8,41.2,4.2c10.4,1.1,22.1,2.2,29.6-6.6c8.3-9.7,7.1-25.4,8.3-37.5
		c1.2-12.1,2.3-24.3,3.5-36.4c3.4-35.3,6.8-70.6,10.2-105.8c0.8-8.6,1.7-17.3,2.5-25.9c0.7-6.9,2.9-14.9-1.3-21.1
		c-6.6-10.1-24.9-7-35.6-7.4c-14-0.4-27.9-0.9-41.9-1.3c-12.1-0.4-24.2-0.7-36.2-1.1C198,86.7,185.6,84.5,177.8,91.7z"/>
	<path id="XMLID_64_" fill="#223234" d="M176.7,89.9c-0.2,0.2-0.3,0.3-0.5,0.5c-4.4,4.6-5.5,12.1-5.9,18.2c-0.6,8.9-1,17.9-1.4,26.8
		c-1.8,33.3-3.6,66.6-5.4,100c-0.6,11.9-1.3,23.8-1.9,35.8c-0.5,8.9-2.9,18.7,0.1,27.4c2.9,8.5,8.3,9.9,16.2,10.7
		c15.1,1.6,30.2,3.2,45.3,4.7c12.9,1.4,25.8,2.7,38.7,4.1c9.8,1,20.8,2.1,27.8-6.3c7.8-9.3,6.7-24.4,7.8-35.9
		c1.1-11.6,2.2-23.2,3.3-34.8c3.2-33.8,6.4-67.5,9.6-101.3c0.8-8.3,1.6-16.5,2.3-24.8c0.6-6.6,2.7-14.2-1.2-20.2
		c-6.2-9.6-23.4-6.7-33.4-7c-13.1-0.4-26.2-0.8-39.3-1.2c-11.3-0.4-22.7-0.7-34-1.1C195.6,85.1,184,83,176.7,89.9z"/>
	<path id="XMLID_67_" fill="#B1D133" d="M302.4,131.4c-0.9,9.4-2,18.8-3,28.1c-2.6,24.1-5.2,48.1-7.7,72.2l-3.6,33.3
		c-0.8,7.3-0.8,17.5-6.6,23c-6.7,6.2-19.8,2.4-27.8,1.8c-11-0.9-22-1.8-33.1-2.7c-10.9-0.9-21.8-1.8-32.8-2.7
		c-3.2-0.3-8.7,0.4-11.6-0.9c-3.5-1.5-4.8-5.1-5.2-9c-0.3-3.6,0.1-7.5,0.4-10.4c0.8-8.9,1.1-17.8,1.6-26.7
		c1.5-24.3,2.9-48.5,4.4-72.7c0.6-10.4,1.3-20.8,1.9-31.2c0.4-7.2,0.1-15.3,4.4-19.5c2-1.9,4.9-2.9,9.2-2.7
		c20.7,1,41.4,1.7,62.1,2.4c10.3,0.3,20.7,0.6,31.1,1c2.8,0.1,6.8-0.2,10.1,0.5c1.7,0.3,3.3,0.9,4.4,2
		C304.3,120.5,302.9,126.9,302.4,131.4z"/>
	<path id="XMLID_70_" fill="#E0F95A" d="M300.5,117.2c-0.5-0.4-1.1-0.8-1.7-1.1c1.4,3.5,0.5,8.1,0.2,11.7c-0.9,9.4-2,18.8-3,28.1
		c-2.6,24.1-5.1,48.1-7.7,72.2l-3.6,33.3c-0.8,7.3-0.8,17.5-6.6,23c-6.7,6.2-19.8,2.4-27.8,1.8c-11-0.9-22.1-1.8-33.1-2.7
		c-10.9-0.9-21.8-1.8-32.8-2.6c-3.2-0.3-8.7,0.4-11.6-0.9c-0.2-0.1-0.3-0.2-0.4-0.2c0.8,1.7,2,3.1,3.9,3.9c2.9,1.3,8.5,0.6,11.6,0.9
		c10.9,0.9,21.8,1.8,32.8,2.7c11,0.9,22.1,1.8,33.1,2.7c8,0.6,21.1,4.4,27.8-1.8c5.9-5.5,5.8-15.7,6.6-23l3.6-33.3
		c2.6-24.1,5.1-48.1,7.7-72.2c1-9.4,2.1-18.8,3-28.1C302.9,126.9,304.3,120.5,300.5,117.2z"/>
	<path fill="#253E44" d="M240.9,306.9c0.5-3.2,0.9-6.7,1.1-9.9c0.1-1.7-1.1-3.1-2.7-3.3c-10.2-1.1-20-1.8-30.2-2.9
		c-1.8-0.2-3.3,1.1-3.4,2.9c-0.2,3.1-0.4,6.9-0.5,9.9c-0.1,1.6,1.1,3,2.7,3.2c10.2,1.4,19.2,2.2,29.8,2.8
		C239.3,309.6,240.7,308.5,240.9,306.9z"/>
	<path fill="#1A2526" d="M239.3,306.1c0.4-2.7,0.7-5.6,0.9-8.3c0.1-1.4-1-2.6-2.5-2.8c-9.1-1.1-17.9-1.8-27.1-2.9
		c-1.6-0.2-3,0.9-3,2.4c-0.1,2.6-0.3,5.8-0.4,8.3c0,1.3,1,2.5,2.4,2.7c9.1,1.3,17.2,2.1,26.7,2.8
		C237.9,308.3,239.1,307.4,239.3,306.1z"/>
	<path id="XMLID_71_" fill="#1A2526" d="M279.6,98.8c-3.9,0-3.9,6,0,6C283.5,104.8,283.5,98.8,279.6,98.8z"/>
	<path id="XMLID_74_" fill="#1A2526" d="M293.6,98.8c-3.9,0-3.9,6,0,6C297.5,104.8,297.5,98.8,293.6,98.8z"/>
	<path id="XMLID_75_" fill="#1A2526" d="M268.6,99.4c-6.1-1.5-13.2-0.5-19.5-0.8c-6.4-0.3-13.7-1.5-19.9-0.1c-1.6,0.4-1.5,2.7,0,3.2
		c6.4,2.1,14.2,1.5,20.8,1.8c6.1,0.3,13.2,1.4,19-0.9C270.4,102,269.9,99.7,268.6,99.4z"/>
	<path id="XMLID_78_" fill="#627A80" d="M312.9,189.8c-1.6-0.7-3.1-0.7-4.8-0.5c1.1-11.8,2.4-23.5,4.1-35.2c1.5,0.1,3.5,0.4,5,0.5
		C315.6,166.4,314.4,178,312.9,189.8z"/>
	<path id="XMLID_81_" fill="#9DBA2D" d="M296.1,115.2c-27.5,62.4-70.9,117.9-125.1,159.4c-0.3-3.6,0.1-7.5,0.4-10.4
		c0.8-8.9,1.1-17.8,1.6-26.7c1.5-24.3,2.9-48.5,4.4-72.7c0.6-10.4,1.3-20.8,1.9-31.2c0.4-7.2,0.1-15.3,4.4-19.5
		c2-1.9,4.9-2.9,9.2-2.7c20.7,1,41.4,1.7,62.1,2.4c10.3,0.3,20.7,0.6,31.1,1C288.8,114.8,292.8,114.5,296.1,115.2z"/>
	<path fill="#1E2A2D" d="M343.2,260.4c-0.7-7.4-2.9-14.4-6.4-20.9c-3.3-6.3-7.9-12-13.2-16.9c-4.9-4.5-10.5-9.2-17.5-7.9
		c-3.8,0.7-2.7,5.7,0.2,6.8c10.2,3.8,18.7,15,23.1,24.7c2.5,5.3,3.9,11.2,4.1,17.1c0.2,5.1-1.9,11.1,0.6,15.8c0.7,1.4,2.8,1.7,4,0.9
		C344.2,276.5,343.8,266.4,343.2,260.4z"/>
	<path fill="#1E2A2D" d="M128,180.7c-2.8,3.7-2.8,9.3,0.2,12.9c3,3.6,8.5,4.7,12.6,2.6c4.1-2.2,6.3-7.4,4.9-11.9
		C143.5,177.2,132.8,174.5,128,180.7z"/>
	<path fill="#1E2A2D" d="M323.3,268c-2.8,3.7-2.8,9.3,0.2,12.9c3,3.6,8.5,4.7,12.6,2.6c4.1-2.2,6.3-7.4,4.9-11.9
		C338.8,264.5,328.1,261.8,323.3,268z"/>
	<path id="XMLID_82_" fill="#1E2A2D" d="M205.7,372.5c0-9.4,0.7-19,1.1-28.4c0.2-4.6,0.4-9.1,0.6-13.7c0.2-4.4,0.8-9.2-0.7-13.3
		c-0.7-2.1-3.4-2.2-4.4,0c-1.8,3.9-1.7,8.2-2,12.4c-0.3,4.9-0.6,9.8-0.9,14.7c-0.5,7.9-0.7,15.9-1.4,23.8c-2.6,0.1-5.3,0.6-7.3,1
		c-3.1,0.6-6.3,1.7-8.7,3.8c-1.2,1-2.6,2.5-2.9,4.1c-0.5,2.9,2.8,2,4.8,2c5.3,0,10.6-0.3,15.8-1.5c1-0.2,2-0.5,2.9-1
		C204.3,375.7,205.7,374.1,205.7,372.5z"/>
	<path id="XMLID_86_" fill="#1E2A2D" d="M254.5,378.2c0-9.4,0.7-19,1.1-28.4c0.2-4.6,0.4-9.1,0.6-13.7c0.2-4.4,0.8-9.2-0.7-13.3
		c-0.7-2.1-3.4-2.2-4.4,0c-1.8,3.9-1.7,8.2-2,12.4c-0.3,4.9-0.6,9.8-0.9,14.7c-0.5,7.9-0.7,15.9-1.4,23.8c-2.6,0.1-5.3,0.6-7.3,1
		c-3.3,0.7-6.7,1.9-9.1,4.2c-1.1,1-2.2,2.5-2.7,3.9c-0.9,2.8,2.5,1.8,4.3,1.8c5.5,0,11.1-0.3,16.5-1.5c1-0.2,2-0.5,2.9-1
		C253.1,381.4,254.5,379.7,254.5,378.2z"/>
</g>
</svg>
