<?xml version="1.0" encoding="utf-8"?>
<!-- Generator: Adobe Illustrator 18.0.0, SVG Export Plug-In . SVG Version: 6.00 Build 0)  -->
<!DOCTYPE svg PUBLIC "-//W3C//DTD SVG 1.1//EN" "http://www.w3.org/Graphics/SVG/1.1/DTD/svg11.dtd">
<svg version="1.1" id="Capa_1" xmlns="http://www.w3.org/2000/svg" xmlns:xlink="http://www.w3.org/1999/xlink" x="0px" y="0px"
	 viewBox="0 0 1000 850" enable-background="new 0 0 1000 850" xml:space="preserve">
<g>
	<g>
		<polygon fill="#FFDB79" points="316.1,68.9 467.2,68.9 470.8,68.9 470.8,72.5 470.8,174.3 592,174.3 595.6,174.3 595.6,177.9 
			595.6,229.3 588.4,229.3 588.4,181.5 467.2,181.5 463.6,181.5 463.6,177.9 463.6,76.1 316.1,76.1 		"/>
		<polygon fill="#FFDB79" points="196.7,120.8 117.1,120.8 117.1,258 109.8,258 109.8,117.2 109.8,113.6 113.4,113.6 196.7,113.6 		
			"/>
	</g>
	<g>
		<path fill-rule="evenodd" clip-rule="evenodd" fill="#34465C" d="M237.4,294.8h602.8c12.2,0,22.3,10,22.3,22.3v411.7H215V317.1
			C215,304.8,225.1,294.8,237.4,294.8L237.4,294.8z"/>
		<path fill-rule="evenodd" clip-rule="evenodd" fill="#34404F" d="M114.7,804.1h424h423.9c2.3,0,1.8-1.8-1-4l-91-70
			c-2.9-2.2-7.1-4-9.4-4H538.7H216.3c-2.3,0-6.6,1.8-9.4,4l-91.1,70C112.9,802.4,112.4,804.1,114.7,804.1L114.7,804.1z"/>
		<path fill-rule="evenodd" clip-rule="evenodd" fill="#34465C" d="M118.2,799.1c280.3,0,560.8,0,841.2,0c6.3,0,7,5.2,1.4,11.6
			l-11.4,12.9c-5.7,6.4-15.5,11.6-21.9,11.6c-259.2,0-518.3,0-777.4,0c-6.4,0-16.3-5.2-21.8-11.6l-11.4-12.9
			C111.1,804.3,111.7,799.1,118.2,799.1L118.2,799.1z"/>
		<polygon fill-rule="evenodd" clip-rule="evenodd" fill="#6E7F8F" points="472.7,765.2 508.4,765.2 569.1,765.2 604.8,765.2 
			624.6,787 549.3,787 528.2,787 452.8,787 		"/>
		<rect x="235.4" y="322.7" fill-rule="evenodd" clip-rule="evenodd" fill="#FFFFFF" width="606.7" height="384.1"/>
	</g>
	<path fill-rule="evenodd" clip-rule="evenodd" fill="#939393" d="M903.1,222.6c4.8-7.8,7.9-16.3,9.2-25.2l26.9-4.6L932,151
		l-26.9,4.7c-2.1-3.9-4.6-7.6-7.6-11.2c-2.9-3.5-6.2-6.6-9.6-9.4l9.4-25.6l-39.7-14.6l-9.4,25.7c-8.9-0.3-18,1.2-26.4,4.6l-17.5-21
		l-32.5,27.2l17.5,20.9c-4.8,7.8-7.9,16.4-9.2,25.2l-26.9,4.7l7.2,41.6l26.9-4.6c2.1,3.9,4.6,7.6,7.6,11.1c2.9,3.6,6.2,6.7,9.6,9.4
		l-9.4,25.7l39.7,14.5l9.4-25.7c8.9,0.3,18-1.2,26.4-4.6l17.5,21l32.5-27.1L903.1,222.6z"/>
	<path fill-rule="evenodd" clip-rule="evenodd" fill="#FFFFFF" d="M859.7,203.6c8.9-7.5,10.2-20.8,2.7-29.8
		c-7.5-9-20.8-10.2-29.8-2.7c-8.9,7.5-10.2,20.9-2.7,29.8C837.4,209.9,850.7,211.2,859.7,203.6L859.7,203.6z M872.8,219.3
		c17.6-14.7,20-41,5.3-58.7c-14.7-17.6-41-20-58.7-5.3c-17.6,14.7-20,41-5.3,58.7C828.9,231.8,855.1,234.1,872.8,219.3L872.8,219.3z
		"/>
	<path fill-rule="evenodd" clip-rule="evenodd" fill="#939393" d="M731.3,135c-2.5-5.8-6.2-11-10.7-15.2l7.9-17.2l-26.8-12.3
		l-7.9,17.2c-3-0.3-6.1-0.3-9.4-0.1c-3.1,0.3-6.2,1-9.1,1.8l-11-15.5l-24,17l11,15.5c-3.6,5-6.4,10.7-7.8,16.9l-18.9,1.7l2.7,29.3
		l18.9-1.8c2.6,5.8,6.3,11,10.8,15.2l-7.9,17.3l26.7,12.2l7.9-17.2c3.1,0.3,6.2,0.3,9.4,0.1c3.2-0.3,6.3-0.9,9.2-1.8l11,15.4l24-17
		l-11-15.5c3.7-5,6.3-10.7,7.8-16.9l18.9-1.8l-2.7-29.3L731.3,135z"/>
	<path fill-rule="evenodd" clip-rule="evenodd" fill="#FFFFFF" d="M703.4,152.3c-0.8-8.1-7.9-14-16-13.2c-8.1,0.8-14,7.9-13.2,16
		c0.8,8.1,7.9,14.1,16,13.3C698.2,167.5,704.2,160.4,703.4,152.3L703.4,152.3z M717.6,151c-1.5-15.9-15.6-27.6-31.5-26.1
		c-15.9,1.5-27.6,15.6-26.2,31.5c1.5,15.9,15.6,27.7,31.5,26.2C707.4,181,719.1,166.9,717.6,151L717.6,151z"/>
	<g>
		<path fill-rule="evenodd" clip-rule="evenodd" fill="#53BAF9" d="M258.7,14.8c-29.4,0-54,18.8-61,44.4
			C169.2,62.2,147,85,147,112.6c0,29.8,25.7,53.9,57.4,53.9l0,0h146.8l0,0c0.1,0,0.3,0,0.4,0c27.4,0,49.6-20.8,49.6-46.5
			c0-19.1-12.4-35.6-29.9-42.7c0-0.3,0-0.6,0-1c0-18.2-15.7-32.8-35-32.8c-7.5,0-14.5,2.3-20.2,6C306.2,29.1,284.2,14.8,258.7,14.8
			L258.7,14.8z"/>
		<path fill-rule="evenodd" clip-rule="evenodd" fill="#53BAF9" d="M459.3,138.3c-15.4,0-28.2,9.8-31.8,23.1
			c-14.9,1.6-26.5,13.5-26.5,27.9c0,15.5,13.4,28.1,30,28.1l0,0h76.6l0,0c0.1,0,0.1,0,0.2,0c14.3,0,25.9-10.9,25.9-24.2
			c0-10-6.4-18.6-15.6-22.3c0-0.2,0-0.3,0-0.5c0-9.4-8.1-17.1-18.2-17.1c-4,0-7.6,1.2-10.6,3.1C484.1,145.7,472.7,138.3,459.3,138.3
			L459.3,138.3z"/>
	</g>
	<path fill-rule="evenodd" clip-rule="evenodd" fill="#01477C" d="M52.7,228.9h683.7c9.5,0,17.2,7.8,17.2,17.3v389
		c0,9.5-7.7,17.3-17.2,17.3H52.7c-9.5,0-17.3-7.8-17.3-17.3v-389C35.5,236.7,43.3,228.9,52.7,228.9L52.7,228.9z"/>
	<g>
		<path fill-rule="evenodd" clip-rule="evenodd" fill="#353F49" d="M50.6,228.9h687.9c8.3,0,15.2,6.8,15.2,15.2v46.6
			c0,0.7-0.5,1.2-1.2,1.2h-717v-47.8C35.5,235.7,42.3,228.9,50.6,228.9L50.6,228.9z"/>
		<path fill-rule="evenodd" clip-rule="evenodd" fill="#F77B55" d="M71,273.5c7.3,0,13.2-6.2,13.2-13.8c0-7.6-5.9-13.8-13.2-13.8
			c-7.2,0-13.2,6.1-13.2,13.8C57.8,267.3,63.7,273.5,71,273.5L71,273.5z"/>
		<path fill-rule="evenodd" clip-rule="evenodd" fill="#76D0DE" d="M107.8,273.5c7.2,0,13.2-6.2,13.2-13.8c0-7.6-5.9-13.8-13.2-13.8
			c-7.3,0-13.2,6.1-13.2,13.8C94.7,267.3,100.5,273.5,107.8,273.5L107.8,273.5z"/>
		<path fill-rule="evenodd" clip-rule="evenodd" fill="#FFDB79" d="M144.7,273.5c7.2,0,13.2-6.2,13.2-13.8c0-7.6-5.9-13.8-13.2-13.8
			c-7.3,0-13.2,6.1-13.2,13.8C131.5,267.3,137.4,273.5,144.7,273.5L144.7,273.5z"/>
		<rect x="177.9" y="248.1" fill-rule="evenodd" clip-rule="evenodd" fill="#FFFFFF" width="555.4" height="26.2"/>
	</g>
	<rect x="93.2" y="316.4" fill-rule="evenodd" clip-rule="evenodd" fill="#FFFFFF" width="154.1" height="20.3"/>
	<rect x="311.2" y="316.4" fill-rule="evenodd" clip-rule="evenodd" fill="#FFFFFF" width="154.1" height="20.3"/>
	<rect x="529.9" y="316.4" fill-rule="evenodd" clip-rule="evenodd" fill="#FFFFFF" width="154.1" height="20.3"/>
	<rect x="89" y="370.2" fill-rule="evenodd" clip-rule="evenodd" fill="#FFFFFF" width="370.7" height="168.8"/>
	<rect x="490.3" y="370.2" fill-rule="evenodd" clip-rule="evenodd" fill="#E60012" width="113.6" height="108"/>
	<rect x="86.2" y="558.7" fill-rule="evenodd" clip-rule="evenodd" fill="#FFFFFF" width="283.3" height="11.6"/>
	<rect x="140.3" y="580.5" fill-rule="evenodd" clip-rule="evenodd" fill="#FFFFFF" width="283.3" height="11.7"/>
	<rect x="94.5" y="603.8" fill-rule="evenodd" clip-rule="evenodd" fill="#FFFFFF" width="283.3" height="11.7"/>
	<polygon fill-rule="evenodd" clip-rule="evenodd" fill="#FFFFFF" points="570.1,424.2 547.1,438.2 524.1,452.1 524.1,424.2 
		524.1,396.4 547.1,410.3 	"/>
	<rect x="490.3" y="504.6" fill-rule="evenodd" clip-rule="evenodd" fill="#08C6A2" width="227.2" height="108"/>
	<rect x="603.9" y="370.2" fill-rule="evenodd" clip-rule="evenodd" fill="#FFFFFF" width="113.6" height="108"/>
	<path fill-rule="evenodd" clip-rule="evenodd" fill="#353F49" d="M174.1,469.2l-21.5-9.6l24.8-9.6l1-5.6l-32.5,12.4l-1,5.5
		l28.2,12.4L174.1,469.2z M222.6,463l-5.3,30.8h7.6l11.8-68.4H229l-5.3,30.8h-16.8l5.3-30.8h-7.6l-11.8,68.4h7.6l5.3-30.8H222.6z
		 M250.1,493.8l10.7-61.5h12.6l1.2-6.9h-32.8l-1.2,6.9h12.6l-10.7,61.5H250.1z M313.4,438.8l-9.5,55h7.2l11.8-68.4h-10.7L292.1,480
		l-1.8-54.6h-10.7l-11.9,68.4h6.6l9.5-54.6l1.9,54.5h7.3L313.4,438.8z M346.1,493.8l1.2-7h-19.5l10.6-61.4h-7.6L319,493.8H346.1z
		 M370.4,474.8l32.4-12.4l1-5.5l-28.1-12.4l-1,5.6l21.5,9.6l-24.9,9.6L370.4,474.8z"/>
	<path fill-rule="evenodd" clip-rule="evenodd" fill="#FEFEFE" d="M550.1,566.9l-17.2-7.6l19.5-7.6l0.6-4.4l-25.4,9.8l-0.6,4.4
		l22.5,9.8L550.1,566.9z M573.4,532.3l-8.1,54.1H578c8.5,0,13.1-5.1,14.3-13.4l4-27.2c1.3-8.3-1.8-13.5-10.2-13.5H573.4z
		 M572.2,580.9l6.5-43.2h6.5c4.4,0,6.1,2.7,5.3,7.6l-4.2,27.9c-0.7,4.9-3.2,7.6-7.6,7.6H572.2z M604,532.3l-8.1,54.1h6l8.1-54.1H604
		z M614.7,532.3l2,54.1h8.9l18.2-54.1h-5.5l-15.8,47l-1.8-47H614.7z M654.7,571.4l25.4-9.8l0.7-4.4l-22.5-9.8l-0.7,4.4l17.2,7.6
		l-19.5,7.6L654.7,571.4z"/>
</g>
</svg>
