<?xml version="1.0" encoding="utf-8"?>
<!-- Generator: Adobe Illustrator 18.0.0, SVG Export Plug-In . SVG Version: 6.00 Build 0)  -->
<!DOCTYPE svg PUBLIC "-//W3C//DTD SVG 1.1//EN" "http://www.w3.org/Graphics/SVG/1.1/DTD/svg11.dtd">
<svg version="1.1" id="Capa_1" xmlns="http://www.w3.org/2000/svg" xmlns:xlink="http://www.w3.org/1999/xlink" x="0px" y="0px"
	 viewBox="0 0 1000 1000" enable-background="new 0 0 1000 1000" xml:space="preserve">
<g>
	<g>
		<g>
			<path fill="#00C3B6" d="M500,679c-98.7,0-179-80.3-179-179c0-98.7,80.3-179,179-179c98.7,0,179,80.3,179,179
				C679,598.7,598.7,679,500,679z M500,323.7c-97.2,0-176.3,79.1-176.3,176.3c0,97.2,79.1,176.3,176.3,176.3
				c97.2,0,176.3-79.1,176.3-176.3C676.3,402.8,597.2,323.7,500,323.7z"/>
		</g>
		<g>
			<path fill="#00C3B6" d="M500,660.7l-0.9,0c-0.7,0-1.3-0.6-1.3-1.3c0-0.7,0.6-1.3,1.3-1.3c0,0,0,0,0,0l0.9,0
				c16.5,0,32.7-2.5,48.2-7.5c0.7-0.2,1.4,0.2,1.7,0.9c0.2,0.7-0.2,1.4-0.9,1.7C533.2,658.1,516.7,660.7,500,660.7z M449.8,652.6
				c-0.1,0-0.3,0-0.4-0.1c-16.1-5.3-31.1-13.2-44.8-23.2c-0.6-0.4-0.7-1.3-0.3-1.8c0.4-0.6,1.3-0.7,1.8-0.3
				c13.4,9.9,28.2,17.6,44,22.9c0.7,0.2,1.1,1,0.8,1.7C450.8,652.2,450.3,652.6,449.8,652.6z M593.2,630.6c-0.4,0-0.8-0.2-1.1-0.5
				c-0.4-0.6-0.3-1.4,0.3-1.8c13.5-9.8,25.3-21.5,35.2-35c0.4-0.6,1.3-0.7,1.8-0.3c0.6,0.4,0.7,1.3,0.3,1.8
				c-10,13.7-22,25.6-35.8,35.6C593.8,630.5,593.5,630.6,593.2,630.6z M370.3,593.9c-0.4,0-0.8-0.2-1.1-0.6
				c-9.9-13.8-17.4-29-22.5-45.1c-0.2-0.7,0.2-1.4,0.9-1.7c0.7-0.2,1.4,0.2,1.7,0.9c5,15.9,12.4,30.8,22.1,44.4
				c0.4,0.6,0.3,1.4-0.3,1.8C370.8,593.8,370.5,593.9,370.3,593.9z M651.5,550.7c-0.1,0-0.3,0-0.4-0.1c-0.7-0.2-1.1-1-0.8-1.7
				c5.1-15.8,7.7-32.3,7.7-49c0-0.7,0.6-1.3,1.3-1.3c0.7,0,1.3,0.6,1.3,1.3c0,17-2.6,33.8-7.9,49.8
				C652.6,550.4,652.1,550.7,651.5,550.7z M340.7,499.6C340.7,499.6,340.7,499.6,340.7,499.6c-0.7,0-1.3-0.6-1.3-1.3
				c0.2-17,3-33.8,8.4-49.7c0.2-0.7,1-1.1,1.7-0.8c0.7,0.2,1.1,1,0.8,1.7c-5.3,15.7-8.1,32.2-8.3,48.9
				C342,499,341.4,499.6,340.7,499.6z M652.6,455.2c-0.6,0-1.1-0.4-1.3-0.9c-4.8-15.9-12.1-30.9-21.7-44.6c-0.4-0.6-0.3-1.4,0.3-1.8
				c0.6-0.4,1.4-0.3,1.8,0.3c9.7,13.9,17.1,29.2,22,45.4c0.2,0.7-0.2,1.4-0.9,1.6C652.8,455.2,652.7,455.2,652.6,455.2z M372.3,406
				c-0.3,0-0.6-0.1-0.8-0.3c-0.6-0.4-0.7-1.3-0.3-1.9c10.2-13.6,22.3-25.4,36.1-35.2c0.6-0.4,1.4-0.3,1.8,0.3
				c0.4,0.6,0.3,1.4-0.3,1.8c-13.6,9.6-25.6,21.3-35.6,34.6C373.1,405.8,372.7,406,372.3,406z M596,374.2c-0.3,0-0.6-0.1-0.8-0.3
				c-13.3-10.1-28.1-17.9-43.8-23.3c-0.7-0.2-1.1-1-0.8-1.7c0.2-0.7,1-1.1,1.7-0.8c16,5.5,31,13.5,44.5,23.7
				c0.6,0.4,0.7,1.3,0.3,1.9C596.8,374,596.4,374.2,596,374.2z M453.1,349c-0.6,0-1.1-0.4-1.3-0.9c-0.2-0.7,0.2-1.4,0.9-1.7
				c16.1-5,33-7.3,49.9-7.1c0.7,0,1.3,0.6,1.3,1.3c0,0.7-0.6,1.2-1.3,1.3c-16.7-0.3-33.3,2.1-49.1,6.9
				C453.3,349,453.2,349,453.1,349z"/>
		</g>
		<g>
			<g>
				<path fill="#00C3B6" d="M500,238.3c-57.6,0-104.4-46.8-104.4-104.4c0-57.6,46.8-104.4,104.4-104.4
					c57.6,0,104.4,46.8,104.4,104.4C604.4,191.5,557.6,238.3,500,238.3z M500,32.2c-56.1,0-101.7,45.6-101.7,101.7
					c0,56.1,45.6,101.7,101.7,101.7c56.1,0,101.7-45.6,101.7-101.7C601.7,77.8,556.1,32.2,500,32.2z"/>
			</g>
			<g>
				<path fill="#00C3B6" d="M500.1,255.7H500c-16.1,0-31.7-3.1-46.5-9.2c-0.7-0.3-1-1.1-0.7-1.7c0.3-0.7,1.1-1,1.7-0.7
					c14.4,6,29.7,9,45.5,9c0.7,0,1.4,0.6,1.4,1.3S500.9,255.7,500.1,255.7z M546.2,246.6c-0.5,0-1-0.3-1.2-0.8
					c-0.3-0.7,0-1.4,0.7-1.7c14.5-6,27.5-14.7,38.6-25.9c0.5-0.5,1.4-0.5,1.9,0c0.5,0.5,0.5,1.4,0,1.9
					c-11.4,11.4-24.7,20.3-39.5,26.4C546.5,246.5,546.4,246.6,546.2,246.6z M414.9,220.6c-0.3,0-0.7-0.1-0.9-0.4
					c-11.4-11.4-20.3-24.6-26.5-39.4c-0.3-0.7,0-1.4,0.7-1.7c0.7-0.3,1.4,0,1.7,0.7c6,14.5,14.7,27.5,25.9,38.6
					c0.5,0.5,0.5,1.4,0,1.9C415.6,220.4,415.3,220.6,414.9,220.6z M611.3,181.3c-0.2,0-0.3,0-0.5-0.1c-0.7-0.3-1-1.1-0.7-1.7
					c6-14.5,9-29.8,9-45.6l0-0.5c0-0.7,0.6-1.3,1.3-1.3c0.8,0,1.3,0.6,1.3,1.3l0,0.5c0,16.1-3.1,31.8-9.2,46.6
					C612.4,181,611.9,181.3,611.3,181.3z M379.5,135.4c-0.7,0-1.3-0.5-1.3-1.2v-0.2c0-16,3.1-31.6,9.1-46.4c0.3-0.7,1.1-1,1.7-0.7
					c0.7,0.3,1,1.1,0.7,1.7c-5.9,14.4-8.9,29.7-8.9,45.3C380.9,134.7,380.3,135.4,379.5,135.4z M611.1,88.7c-0.5,0-1-0.3-1.2-0.8
					c-6.1-14.5-14.8-27.4-26-38.5c-0.5-0.5-0.5-1.4,0-1.9c0.5-0.5,1.4-0.5,1.9,0c11.4,11.3,20.4,24.6,26.6,39.4
					c0.3,0.7,0,1.4-0.7,1.7C611.5,88.7,611.3,88.7,611.1,88.7z M414.6,50.3c-0.3,0-0.7-0.1-0.9-0.4c-0.5-0.5-0.5-1.4,0-1.9
					c11.4-11.4,24.6-20.3,39.4-26.5c0.7-0.3,1.4,0,1.7,0.7c0.3,0.7,0,1.4-0.7,1.7c-14.5,6-27.4,14.8-38.5,25.9
					C415.3,50.2,414.9,50.3,414.6,50.3z M545.7,23.8c-0.2,0-0.3,0-0.5-0.1c-14.4-5.9-29.6-8.9-45.2-8.9h-0.4c-0.7,0-1.3-0.6-1.3-1.3
					s0.6-1.3,1.3-1.3h0.4c16,0,31.6,3.1,46.2,9.1c0.7,0.3,1,1,0.7,1.7C546.8,23.5,546.3,23.8,545.7,23.8z"/>
			</g>
			<g>
				<path fill="#00C3B6" d="M500,310.6c-0.7,0-1.3-0.6-1.3-1.3v-51.4c0-0.7,0.6-1.3,1.3-1.3c0.7,0,1.3,0.6,1.3,1.3v51.4
					C501.3,310,500.7,310.6,500,310.6z"/>
			</g>
		</g>
		<g>
			<g>
				<path fill="#00C3B6" d="M241.2,345.5c-26.7,0-53.5-10.2-73.8-30.5c-40.7-40.7-40.7-106.9,0-147.6c40.7-40.7,106.9-40.7,147.6,0
					c40.7,40.7,40.7,106.9,0,147.6C294.6,335.3,267.9,345.5,241.2,345.5z M241.2,139.5c-26.1,0-52.1,9.9-71.9,29.8
					c-39.7,39.7-39.7,104.2,0,143.9c39.7,39.7,104.2,39.7,143.9,0c39.7-39.7,39.7-104.2,0-143.9l0,0
					C293.3,149.4,267.2,139.5,241.2,139.5z"/>
			</g>
			<g>
				<path fill="#00C3B6" d="M241.3,362.9h-0.1c-16.1,0-31.7-3.1-46.5-9.2c-0.7-0.3-1-1.1-0.7-1.7c0.3-0.7,1.1-1,1.7-0.7
					c14.5,6,29.8,9,45.5,9c0.7,0,1.4,0.6,1.4,1.3C242.5,362.4,242,362.9,241.3,362.9z M287.4,353.8c-0.5,0-1-0.3-1.2-0.8
					c-0.3-0.7,0-1.4,0.7-1.7c14.4-6,27.4-14.7,38.5-25.8c0.5-0.5,1.4-0.5,1.9,0c0.5,0.5,0.5,1.3,0,1.8l-0.1,0.1
					c-11.4,11.4-24.6,20.3-39.4,26.4C287.7,353.7,287.5,353.8,287.4,353.8z M156,327.8c-0.3,0-0.6-0.1-0.8-0.4l-0.1-0.1
					c-11.4-11.4-20.2-24.6-26.4-39.3c-0.3-0.7,0-1.4,0.7-1.7c0.7-0.3,1.4,0,1.7,0.7c6,14.4,14.7,27.3,25.8,38.5
					c0.5,0.5,0.6,1.4,0.1,1.9C156.7,327.6,156.3,327.8,156,327.8z M352.5,288.5c-0.2,0-0.3,0-0.5-0.1c-0.7-0.3-1-1.1-0.7-1.7
					c6-14.5,9-29.8,9-45.5c0-0.7,0.6-1.3,1.3-1.3c0.7,0,1.3,0.6,1.3,1.3v0c0,16.1-3.1,31.8-9.2,46.6
					C353.5,288.2,353,288.5,352.5,288.5z M120.7,242.6c-0.7,0-1.3-0.5-1.3-1.2v-0.2c0-16,3.1-31.6,9.1-46.4c0.3-0.7,1.1-1,1.7-0.7
					c0.7,0.3,1,1.1,0.7,1.7c-5.9,14.4-9,29.7-9,45.4C122,241.9,121.4,242.6,120.7,242.6z M352.5,196.3c-0.5,0-1-0.3-1.2-0.8
					c-6-14.5-14.7-27.5-25.8-38.6l-0.2-0.2c-0.5-0.5-0.5-1.4,0-1.9c0.5-0.5,1.4-0.5,1.9,0l0.2,0.2c11.4,11.4,20.3,24.7,26.4,39.5
					c0.3,0.7,0,1.4-0.7,1.7C352.8,196.3,352.6,196.3,352.5,196.3z M155.8,157.5c-0.3,0-0.7-0.1-0.9-0.4c-0.5-0.5-0.5-1.4,0-1.9
					l0.2-0.2c11.3-11.3,24.5-20.2,39.2-26.3c0.7-0.3,1.4,0,1.7,0.7c0.3,0.7,0,1.4-0.7,1.7c-14.4,6-27.3,14.6-38.4,25.7l-0.2,0.2
					C156.5,157.4,156.1,157.5,155.8,157.5z M287,131c-0.2,0-0.3,0-0.5-0.1c-14.4-5.9-29.7-8.9-45.3-8.9h-0.3c-0.7,0-1.3-0.6-1.3-1.3
					c0-0.7,0.6-1.3,1.3-1.3h0.3c16,0,31.6,3.1,46.3,9.1c0.7,0.3,1,1,0.7,1.7C288,130.7,287.5,131,287,131z"/>
			</g>
			<g>
				<path fill="#00C3B6" d="M365.1,366.4c-0.3,0-0.7-0.1-0.9-0.4l-36.4-36.4c-0.5-0.5-0.5-1.4,0-1.9c0.5-0.5,1.4-0.5,1.9,0
					l36.4,36.4c0.5,0.5,0.5,1.4,0,1.9C365.8,366.3,365.5,366.4,365.1,366.4z"/>
			</g>
		</g>
		<g>
			<g>
				<path fill="#00C3B6" d="M133.9,604.4c-57.6,0-104.4-46.8-104.4-104.4c0-57.6,46.8-104.4,104.4-104.4
					c57.6,0,104.4,46.8,104.4,104.4C238.3,557.6,191.5,604.4,133.9,604.4z M133.9,398.3c-56.1,0-101.7,45.6-101.7,101.7
					s45.6,101.7,101.7,101.7c56.1,0,101.7-45.6,101.7-101.7S190,398.3,133.9,398.3z"/>
			</g>
			<g>
				<path fill="#00C3B6" d="M134.2,621.8h-0.2c-16.1,0-31.6-3.1-46.4-9.1c-0.7-0.3-1-1.1-0.7-1.7c0.3-0.7,1-1,1.7-0.7
					c14.4,5.9,29.6,8.9,45.3,8.9c0.7,0,1.4,0.6,1.4,1.3C135.4,621.2,134.9,621.8,134.2,621.8z M180.2,612.6c-0.5,0-1-0.3-1.2-0.8
					c-0.3-0.7,0-1.4,0.7-1.7c14.5-6,27.5-14.7,38.6-25.9c0.5-0.5,1.4-0.5,1.9,0c0.5,0.5,0.5,1.4,0,1.9
					c-11.4,11.4-24.6,20.3-39.4,26.5C180.6,612.5,180.4,612.6,180.2,612.6z M49,586.7c-0.3,0-0.7-0.1-0.9-0.4
					c-11.4-11.4-20.3-24.6-26.5-39.4c-0.3-0.7,0-1.4,0.7-1.7c0.7-0.3,1.4,0,1.7,0.7c6,14.5,14.8,27.4,25.9,38.5
					c0.5,0.5,0.5,1.4,0,1.9C49.7,586.6,49.3,586.7,49,586.7z M245.3,547.3c-0.2,0-0.3,0-0.5-0.1c-0.7-0.3-1-1.1-0.7-1.7
					c6-14.4,9-29.7,9-45.5c0-0.7,0.6-1.4,1.3-1.4c0.7,0,1.3,0.5,1.3,1.3v0.1c0,16.1-3.1,31.7-9.2,46.5
					C246.3,547,245.8,547.3,245.3,547.3z M13.5,501.7c-0.7,0-1.3-0.6-1.3-1.3l0-0.4c0-16,3.1-31.6,9.1-46.3c0.3-0.7,1.1-1,1.7-0.7
					c0.7,0.3,1,1,0.7,1.7c-5.9,14.4-8.9,29.6-8.9,45.2l0,0.4C14.8,501.1,14.2,501.7,13.5,501.7z M245.2,455.1c-0.5,0-1-0.3-1.2-0.8
					c-6-14.5-14.7-27.5-25.9-38.6c-0.5-0.5-0.5-1.4,0-1.9c0.5-0.5,1.4-0.5,1.9,0c11.4,11.4,20.3,24.7,26.4,39.5
					c0.3,0.7,0,1.4-0.7,1.7C245.6,455.1,245.4,455.1,245.2,455.1z M48.5,416.4c-0.3,0-0.7-0.1-0.9-0.4c-0.5-0.5-0.5-1.4,0-1.9
					c11.3-11.4,24.6-20.4,39.4-26.6c0.7-0.3,1.4,0,1.7,0.7c0.3,0.7,0,1.4-0.7,1.7c-14.5,6.1-27.4,14.8-38.5,26
					C49.1,416.3,48.8,416.4,48.5,416.4z M180,390c-0.2,0-0.3,0-0.5-0.1c-14.5-6-29.8-9-45.6-9c-0.7,0-1.6-0.6-1.6-1.3
					c0-0.7,0.3-1.3,1.1-1.3c0,0,0.3,0,0.3,0c0,0,0,0,0,0c16.4,0,32.1,3.1,46.8,9.2c0.7,0.3,1,1.1,0.7,1.7
					C181,389.7,180.5,390,180,390z"/>
			</g>
			<g>
				<path fill="#00C3B6" d="M309.2,501.3h-51.4c-0.7,0-1.3-0.6-1.3-1.3c0-0.7,0.6-1.3,1.3-1.3h51.4c0.7,0,1.3,0.6,1.3,1.3
					C310.6,500.7,310,501.3,309.2,501.3z"/>
			</g>
		</g>
		<g>
			<g>
				<path fill="#00C3B6" d="M241.2,863.2c-27.9,0-54.1-10.9-73.8-30.6s-30.6-45.9-30.6-73.8c0-27.9,10.9-54.1,30.6-73.8l0,0
					c40.7-40.7,106.9-40.7,147.6,0c19.7,19.7,30.6,45.9,30.6,73.8c0,27.9-10.9,54.1-30.6,73.8C295.3,852.4,269,863.2,241.2,863.2z
					 M169.2,686.9c-19.2,19.2-29.8,44.8-29.8,71.9c0,27.2,10.6,52.7,29.8,71.9c19.2,19.2,44.8,29.8,71.9,29.8
					c27.2,0,52.7-10.6,71.9-29.8c19.2-19.2,29.8-44.8,29.8-71.9c0-27.2-10.6-52.7-29.8-71.9C273.4,647.2,208.9,647.2,169.2,686.9
					L169.2,686.9z"/>
			</g>
			<g>
				<path fill="#00C3B6" d="M241.4,880.6h-0.2c-16,0-31.6-3.1-46.4-9.2c-0.7-0.3-1-1-0.7-1.7c0.3-0.7,1.1-1,1.7-0.7
					c14.4,5.9,29.7,8.9,45.4,8.9c0.7,0,1.4,0.6,1.4,1.3C242.6,880,242.1,880.6,241.4,880.6z M287.5,871.4c-0.5,0-1-0.3-1.2-0.8
					c-0.3-0.7,0-1.4,0.7-1.7c14.4-6,27.3-14.7,38.5-25.8l1.1,0.8l0.8,1c-11.4,11.4-24.6,20.2-39.3,26.4
					C287.8,871.4,287.6,871.4,287.5,871.4z M156,845.5c-0.3,0-0.6-0.1-0.8-0.3l-0.2-0.2c-11.3-11.3-20.2-24.5-26.3-39.2
					c-0.3-0.7,0-1.4,0.7-1.7c0.7-0.3,1.4,0,1.7,0.7c6,14.4,14.6,27.3,25.7,38.4c0.5,0.5,0.6,1.4,0.1,2
					C156.7,845.3,156.4,845.5,156,845.5z M352.5,806.1c-0.2,0-0.3,0-0.5-0.1c-0.7-0.3-1-1.1-0.7-1.7c6-14.5,9-29.8,9-45.5
					c0-0.7,0.6-1.4,1.3-1.4c0.7,0,1.3,0.5,1.3,1.3v0.1c0,16.1-3.1,31.7-9.2,46.5C353.6,805.8,353.1,806.1,352.5,806.1z M120.7,760.5
					c-0.7,0-1.3-0.6-1.3-1.3l0-0.3c0-16,3.1-31.6,9.1-46.3c0.3-0.7,1.1-1,1.7-0.7c0.7,0.3,1,1.1,0.7,1.7
					c-5.9,14.4-8.9,29.7-8.9,45.3l0,0.3C122,759.9,121.4,760.5,120.7,760.5z M352.4,713.9c-0.5,0-1-0.3-1.2-0.8
					c-6-14.4-14.7-27.4-25.8-38.5c-0.5-0.5-0.5-1.4,0-1.9c0.5-0.5,1.3-0.5,1.8,0c0,0,0.1,0.1,0.1,0.1c11.4,11.4,20.2,24.6,26.4,39.4
					c0.3,0.7,0,1.4-0.7,1.7C352.8,713.9,352.6,713.9,352.4,713.9z M155.7,675.2c-0.3,0-0.7-0.1-0.9-0.4c-0.5-0.5-0.5-1.4,0-1.9
					l0.2-0.2c11.4-11.4,24.7-20.3,39.5-26.4c0.7-0.3,1.4,0,1.7,0.7c0.3,0.7,0,1.4-0.7,1.7c-14.5,6-27.5,14.7-38.6,25.8l-0.2,0.3
					C156.4,675.1,156.1,675.2,155.7,675.2z M287.2,648.8c-0.2,0-0.3,0-0.5-0.1c-14.5-6-29.8-9-45.5-9c-0.7,0-1.3-0.6-1.3-1.3
					c0-0.7,0.6-1.3,1.3-1.3h0c16.1,0,31.8,3.1,46.6,9.2c0.7,0.3,1,1.1,0.7,1.7C288.2,648.5,287.7,648.8,287.2,648.8z"/>
			</g>
			<g>
				<path fill="#00C3B6" d="M328.7,672.6c-0.3,0-0.7-0.1-0.9-0.4c-0.5-0.5-0.5-1.4,0-1.9l36.4-36.4c0.5-0.5,1.4-0.5,1.9,0
					c0.5,0.5,0.5,1.4,0,1.9l-36.4,36.4C329.4,672.4,329.1,672.6,328.7,672.6z"/>
			</g>
		</g>
		<g>
			<g>
				<path fill="#00C3B6" d="M500,970.5c-57.6,0-104.4-46.8-104.4-104.4c0-57.6,46.8-104.4,104.4-104.4
					c57.6,0,104.4,46.8,104.4,104.4C604.4,923.6,557.6,970.5,500,970.5z M500,764.3c-56.1,0-101.7,45.6-101.7,101.7
					S443.9,967.8,500,967.8c56.1,0,101.7-45.6,101.7-101.7S556.1,764.3,500,764.3z"/>
			</g>
			<g>
				<path fill="#00C3B6" d="M500.4,987.8H500c-16,0-31.6-3.1-46.2-9.1c-0.7-0.3-1-1.1-0.7-1.7c0.3-0.7,1.1-1,1.7-0.7
					c14.4,5.9,29.6,8.9,45.2,8.9h0.4c0.7,0,1.3,0.6,1.3,1.3C501.7,987.3,501.1,987.8,500.4,987.8z M546.4,978.6
					c-0.5,0-1-0.3-1.2-0.8c-0.3-0.7,0-1.4,0.7-1.7c14.5-6.1,27.4-14.8,38.5-25.9c0.5-0.5,1.4-0.5,1.9,0c0.5,0.5,0.5,1.4,0,1.9
					c-11.4,11.4-24.6,20.3-39.4,26.5C546.8,978.5,546.6,978.6,546.4,978.6z M415.1,952.9c-0.3,0-0.7-0.1-0.9-0.4
					c-11.4-11.3-20.4-24.6-26.6-39.4c-0.3-0.7,0-1.4,0.7-1.7c0.7-0.3,1.4,0,1.7,0.7c6.1,14.5,14.8,27.4,26,38.5
					c0.5,0.5,0.5,1.4,0,1.9C415.8,952.7,415.5,952.9,415.1,952.9z M611.4,913.2c-0.2,0-0.3,0-0.5-0.1c-0.7-0.3-1-1.1-0.7-1.7
					c5.9-14.4,8.9-29.6,8.9-45.3c0-0.7,0.6-1.4,1.3-1.4c0.7,0,1.3,0.5,1.3,1.2v0.2c0,16-3.1,31.6-9.1,46.4
					C612.4,912.9,612,913.2,611.4,913.2z M379.5,867.6c-0.7,0-1.3-0.3-1.3-1.1c0,0,0-0.3,0-0.3c0-16.4,3.1-32.1,9.2-46.8
					c0.3-0.7,1.1-1,1.7-0.7c0.7,0.3,1,1.1,0.7,1.7c-6,14.5-9,29.8-9,45.6C380.9,866.8,380.3,867.6,379.5,867.6
					C379.5,867.6,379.5,867.6,379.5,867.6z M611.2,821.1c-0.5,0-1-0.3-1.2-0.8c-6-14.5-14.7-27.5-25.9-38.6c-0.5-0.5-0.5-1.4,0-1.9
					c0.5-0.5,1.4-0.5,1.9,0c11.4,11.4,20.3,24.6,26.5,39.4c0.3,0.7,0,1.4-0.7,1.7C611.6,821,611.4,821.1,611.2,821.1z M414.8,782.2
					c-0.3,0-0.7-0.1-0.9-0.4c-0.5-0.5-0.5-1.4,0-1.9c11.4-11.4,24.7-20.3,39.5-26.4c0.7-0.3,1.5,0,1.7,0.7c0.3,0.7,0,1.4-0.7,1.7
					c-14.5,6-27.5,14.7-38.6,25.9C415.5,782.1,415.1,782.2,414.8,782.2z M546,756c-0.2,0-0.3,0-0.5-0.1c-14.4-6-29.7-9-45.5-9
					c-0.7,0-1.4-0.6-1.4-1.3s0.5-1.3,1.3-1.3h0.1c16.1,0,31.7,3.1,46.5,9.2c0.7,0.3,1,1.1,0.7,1.7C547,755.7,546.5,756,546,756z"/>
			</g>
			<g>
				<path fill="#00C3B6" d="M500,743.5c-0.7,0-1.3-0.6-1.3-1.3v-51.4c0-0.7,0.6-1.3,1.3-1.3c0.7,0,1.3,0.6,1.3,1.3v51.4
					C501.3,742.9,500.7,743.5,500,743.5z"/>
			</g>
		</g>
		<g>
			<g>
				<path fill="#00C3B6" d="M758.8,863.2c-27.9,0-54.1-10.9-73.8-30.6l0,0l0,0c-19.7-19.7-30.6-45.9-30.6-73.8
					c0-27.9,10.9-54.1,30.6-73.8c40.7-40.7,106.9-40.7,147.6,0c19.7,19.7,30.6,45.9,30.6,73.8c0,27.9-10.9,54.1-30.6,73.8
					S786.7,863.2,758.8,863.2z M758.8,657.1c-26.1,0-52.1,9.9-71.9,29.8c-19.2,19.2-29.8,44.8-29.8,71.9c0,27.2,10.6,52.7,29.8,71.9
					l0,0c19.2,19.2,44.8,29.8,71.9,29.8c27.2,0,52.7-10.6,71.9-29.8c19.2-19.2,29.8-44.8,29.8-71.9c0-27.2-10.6-52.7-29.8-71.9
					C811,667.1,784.9,657.1,758.8,657.1z"/>
			</g>
			<g>
				<path fill="#00C3B6" d="M758.9,880.6c-16,0-31.6-3.1-46.3-9.1c-0.7-0.3-1-1.1-0.7-1.7c0.3-0.7,1.1-1,1.7-0.7
					c14.4,5.9,29.7,8.9,45.3,8.9l0.3,0c0.7,0,1.3,0.6,1.3,1.3s-0.6,1.3-1.3,1.3L758.9,880.6z M805.2,871.4c-0.5,0-1-0.3-1.2-0.8
					c-0.3-0.7,0-1.4,0.7-1.7c14.4-6,27.3-14.6,38.4-25.7c0.5-0.5,1.4-0.6,2-0.1c0.5,0.5,0.6,1.3,0.1,1.8c0,0-0.2,0.2-0.2,0.2
					c-11.3,11.3-24.5,20.2-39.2,26.3C805.6,871.3,805.4,871.4,805.2,871.4z M673.9,845.6c-0.3,0-0.7-0.1-0.9-0.4l-0.2-0.2
					c-11.4-11.4-20.3-24.7-26.4-39.5c-0.3-0.7,0-1.4,0.7-1.7c0.7-0.3,1.4,0,1.7,0.7c6,14.5,14.7,27.5,25.8,38.6l0.2,0.2
					c0.5,0.5,0.5,1.4,0,1.9C674.6,845.5,674.2,845.6,673.9,845.6z M870.3,806.1c-0.2,0-0.3,0-0.5-0.1c-0.7-0.3-1-1.1-0.7-1.7
					c5.9-14.4,9-29.7,9-45.4c0-0.7,0.6-1.4,1.3-1.4c0.7,0,1.3,0.5,1.3,1.2v0.2c0,16-3.1,31.6-9.1,46.4
					C871.3,805.7,870.8,806.1,870.3,806.1z M638.4,760.2c-0.7,0-1.3-0.6-1.3-1.3v0c0-16.1,3.1-31.8,9.2-46.6c0.3-0.7,1.1-1,1.7-0.7
					c0.7,0.3,1,1.1,0.7,1.7c-6,14.5-9,29.8-9,45.6C639.7,759.6,639.1,760.2,638.4,760.2z M870.1,713.9c-0.5,0-1-0.3-1.2-0.8
					c-6-14.4-14.7-27.3-25.8-38.5l0.8-1.1l0.9-0.9l-0.9,0.9l1-0.8c11.4,11.4,20.2,24.6,26.4,39.3c0.3,0.7,0,1.4-0.7,1.7
					C870.4,713.8,870.3,713.9,870.1,713.9z M673.6,675c-0.3,0-0.7-0.1-0.9-0.4c-0.5-0.5-0.5-1.3,0-1.8l0.1-0.1
					c11.4-11.4,24.6-20.3,39.4-26.4c0.7-0.3,1.4,0,1.7,0.7c0.3,0.7,0,1.4-0.7,1.7c-14.4,6-27.4,14.7-38.5,25.8
					C674.3,674.9,674,675,673.6,675z M804.8,648.8c-0.2,0-0.3,0-0.5-0.1c-14.5-6-29.8-9-45.5-9c-0.7,0-1.4-0.6-1.4-1.3
					c0-0.7,0.5-1.3,1.3-1.3h0.1c16.1,0,31.7,3.1,46.5,9.2c0.7,0.3,1,1.1,0.7,1.7C805.8,648.5,805.3,648.8,804.8,648.8z"/>
			</g>
			<g>
				<path fill="#00C3B6" d="M671.3,672.6c-0.3,0-0.7-0.1-0.9-0.4l-36.4-36.4c-0.5-0.5-0.5-1.4,0-1.9c0.5-0.5,1.4-0.5,1.9,0
					l36.4,36.4c0.5,0.5,0.5,1.4,0,1.9C671.9,672.4,671.6,672.6,671.3,672.6z"/>
			</g>
		</g>
		<g>
			<g>
				<path fill="#00C3B6" d="M866.1,604.4c-57.6,0-104.4-46.8-104.4-104.4c0-57.6,46.8-104.4,104.4-104.4
					c57.6,0,104.4,46.8,104.4,104.4C970.5,557.6,923.6,604.4,866.1,604.4z M866.1,398.3c-56.1,0-101.7,45.6-101.7,101.7
					S810,601.7,866.1,601.7c56.1,0,101.7-45.6,101.7-101.7S922.2,398.3,866.1,398.3z"/>
			</g>
			<g>
				<path fill="#00C3B6" d="M866.6,621.8h-0.5c-16.1,0-31.8-3.1-46.6-9.2c-0.7-0.3-1-1.1-0.7-1.7c0.3-0.7,1.1-1,1.7-0.7
					c14.5,6,29.8,9,45.6,9h0.5c0.7,0,1.3,0.6,1.3,1.3C867.9,621.2,867.3,621.8,866.6,621.8z M912.6,612.5c-0.5,0-1-0.3-1.2-0.8
					c-0.3-0.7,0-1.4,0.7-1.7c14.5-6.1,27.4-14.8,38.5-26c0.5-0.5,1.4-0.5,1.9,0c0.5,0.5,0.5,1.4,0,1.9
					c-11.3,11.4-24.6,20.4-39.4,26.6C912.9,612.4,912.8,612.5,912.6,612.5z M780.9,586.5c-0.3,0-0.7-0.1-0.9-0.4
					c-11.4-11.4-20.3-24.7-26.4-39.5c-0.3-0.7,0-1.4,0.7-1.7c0.7-0.3,1.4,0,1.7,0.7c6,14.5,14.7,27.5,25.9,38.6
					c0.5,0.5,0.5,1.4,0,1.9C781.6,586.4,781.3,586.5,780.9,586.5z M977.5,547.1c-0.2,0-0.3,0-0.5-0.1c-0.7-0.3-1-1.1-0.7-1.7
					c5.9-14.4,8.9-29.6,8.9-45.2l0-0.4c0-0.7,0.6-1.3,1.3-1.3s1.3,0.6,1.3,1.3l0,0.4c0,16-3.1,31.6-9.1,46.3
					C978.6,546.8,978.1,547.1,977.5,547.1z M745.6,501.4c-0.7,0-1.3-0.5-1.3-1.3V500c0-16.1,3.1-31.7,9.2-46.5
					c0.3-0.7,1.1-1,1.7-0.7c0.7,0.3,1,1.1,0.7,1.7c-6,14.4-9,29.7-9,45.5C746.9,500.7,746.3,501.4,745.6,501.4z M977.3,454.9
					c-0.5,0-1-0.3-1.2-0.8c-6-14.5-14.8-27.4-25.9-38.5c-0.5-0.5-0.5-1.4,0-1.9c0.5-0.5,1.4-0.5,1.9,0
					c11.4,11.4,20.3,24.6,26.5,39.4c0.3,0.7,0,1.4-0.7,1.7C977.6,454.9,977.4,454.9,977.3,454.9z M780.7,416.3
					c-0.3,0-0.7-0.1-0.9-0.4c-0.5-0.5-0.5-1.4,0-1.9c11.4-11.4,24.6-20.3,39.4-26.5c0.7-0.3,1.4,0,1.7,0.7c0.3,0.7,0,1.4-0.7,1.7
					c-14.5,6-27.5,14.7-38.6,25.9C781.4,416.1,781.1,416.3,780.7,416.3z M911.9,389.9c-0.2,0-0.3,0-0.5-0.1
					c-14.4-5.9-29.6-8.9-45.4-8.9c-0.7,0-1.4-0.6-1.4-1.3c0-0.7,0.5-1.3,1.2-1.3h0.2c16,0,31.6,3.1,46.4,9.1c0.7,0.3,1,1.1,0.7,1.7
					C912.9,389.6,912.4,389.9,911.9,389.9z"/>
			</g>
			<g>
				<path fill="#00C3B6" d="M742.2,501.3h-51.4c-0.7,0-1.3-0.6-1.3-1.3c0-0.7,0.6-1.3,1.3-1.3h51.4c0.7,0,1.3,0.6,1.3,1.3
					C743.5,500.7,742.9,501.3,742.2,501.3z"/>
			</g>
		</g>
		<g>
			<g>
				<path fill="#00C3B6" d="M758.8,345.5c-26.7,0-53.5-10.2-73.8-30.5c-40.7-40.7-40.7-106.9,0-147.6c40.7-40.7,106.9-40.7,147.6,0
					c40.7,40.7,40.7,106.9,0,147.6C812.3,335.3,785.6,345.5,758.8,345.5z M758.8,139.5c-26.1,0-52.1,9.9-71.9,29.8
					c-39.7,39.7-39.7,104.2,0,143.9s104.2,39.7,143.9,0c39.7-39.7,39.7-104.2,0-143.9C811,149.4,784.9,139.5,758.8,139.5z"/>
			</g>
			<g>
				<path fill="#00C3B6" d="M758.9,362.9L758.9,362.9c-16.1,0-31.8-3.1-46.6-9.2c-0.7-0.3-1-1.1-0.7-1.7c0.3-0.7,1.1-1,1.7-0.7
					c14.5,6,29.8,9,45.6,9c0.7,0,1.3,0.6,1.3,1.3C760.2,362.4,759.6,362.9,758.9,362.9z M805,353.8c-0.5,0-1-0.3-1.2-0.8
					c-0.3-0.7,0-1.4,0.7-1.7c14.5-6,27.5-14.7,38.6-25.8l0.2-0.2c0.5-0.5,1.4-0.5,1.9,0c0.5,0.5,0.5,1.4,0,1.9l-0.2,0.2
					c-11.4,11.4-24.7,20.3-39.5,26.4C805.3,353.8,805.1,353.8,805,353.8z M673.7,327.7c-0.3,0-0.6-0.1-0.9-0.4l-0.1-0.1
					c-11.4-11.4-20.3-24.6-26.4-39.4c-0.3-0.7,0-1.4,0.7-1.7c0.7-0.3,1.4,0,1.7,0.7c6,14.4,14.7,27.4,25.8,38.5
					c0.5,0.5,0.5,1.4,0,1.9C674.4,327.6,674,327.7,673.7,327.7z M870.3,288.3c-0.2,0-0.3,0-0.5-0.1c-0.7-0.3-1-1-0.7-1.7
					c5.9-14.4,8.9-29.7,8.9-45.3v-0.3c0-0.7,0.6-1.3,1.3-1.3c0.7,0,1.3,0.6,1.3,1.3v0.3c0,16-3.1,31.6-9.1,46.3
					C871.3,288,870.8,288.3,870.3,288.3z M638.4,242.5c-0.7,0-1.3-0.5-1.3-1.3v-0.1c0-16.1,3.1-31.7,9.2-46.5c0.3-0.7,1.1-1,1.7-0.7
					c0.7,0.3,1,1.1,0.7,1.7c-6,14.5-9,29.8-9,45.5C639.7,241.9,639.1,242.5,638.4,242.5z M870.1,196.1c-0.5,0-1-0.3-1.2-0.8
					c-6-14.4-14.6-27.3-25.8-38.4c-0.5-0.5-0.6-1.4-0.1-2c0.5-0.5,1.3-0.6,1.8-0.1c0,0,0.2,0.2,0.2,0.2
					c11.3,11.3,20.2,24.5,26.3,39.2c0.3,0.7,0,1.4-0.7,1.7C870.4,196.1,870.2,196.1,870.1,196.1z M673.6,157.3
					c-0.3,0-0.7-0.1-0.9-0.4c-0.5-0.5-0.6-1.3-0.1-1.8l0.1-0.1c11.4-11.4,24.6-20.2,39.3-26.4c0.7-0.3,1.4,0,1.7,0.7
					c0.3,0.7,0,1.4-0.7,1.7c-14.4,6-27.3,14.7-38.5,25.8C674.3,157.2,673.9,157.3,673.6,157.3z M804.7,131.1c-0.2,0-0.3,0-0.5-0.1
					c-14.4-5.9-29.7-9-45.4-9c-0.7,0-1.4-0.6-1.4-1.3c0-0.7,0.5-1.3,1.2-1.3v1.3l0.2-1.3c16.1,0,31.7,3.1,46.4,9.2
					c0.7,0.3,1,1.1,0.7,1.7C805.7,130.8,805.3,131.1,804.7,131.1z"/>
			</g>
			<g>
				<path fill="#00C3B6" d="M634.9,366.4c-0.3,0-0.7-0.1-0.9-0.4c-0.5-0.5-0.5-1.4,0-1.9l36.4-36.4c0.5-0.5,1.4-0.5,1.9,0
					c0.5,0.5,0.5,1.4,0,1.9l-36.4,36.4C635.6,366.3,635.2,366.4,634.9,366.4z"/>
			</g>
		</g>
		<path fill="#00C3B6" d="M327.1,112.3c-8.2,0-14.9-6.7-14.9-14.9s6.7-14.9,14.9-14.9S342,89.2,342,97.5S335.3,112.3,327.1,112.3z
			 M327.1,85.2c-6.7,0-12.2,5.5-12.2,12.2c0,6.7,5.5,12.2,12.2,12.2c6.8,0,12.2-5.5,12.2-12.2C339.3,90.7,333.8,85.2,327.1,85.2z"/>
		<path fill="#00C3B6" d="M327.1,105c-4.1,0-7.5-3.4-7.5-7.5c0-4.1,3.4-7.5,7.5-7.5s7.5,3.4,7.5,7.5
			C334.6,101.6,331.2,105,327.1,105z M327.1,92.6c-2.7,0-4.8,2.2-4.8,4.9c0,2.7,2.2,4.9,4.8,4.9s4.9-2.2,4.9-4.9
			C331.9,94.8,329.8,92.6,327.1,92.6z"/>
		<path fill="#00C3B6" d="M289.2,406.3c-5.2,0-9.4-4.2-9.4-9.4c0-5.2,4.2-9.4,9.4-9.4c5.2,0,9.4,4.2,9.4,9.4
			C298.6,402.1,294.4,406.3,289.2,406.3z M289.2,390.2c-3.7,0-6.8,3-6.8,6.8c0,3.7,3,6.8,6.8,6.8c3.7,0,6.8-3,6.8-6.8
			C296,393.2,292.9,390.2,289.2,390.2z"/>
		<path fill="#00C3B6" d="M956.9,626.9c-5.2,0-9.4-4.2-9.4-9.4c0-5.2,4.2-9.4,9.4-9.4c5.2,0,9.4,4.2,9.4,9.4
			C966.3,622.7,962,626.9,956.9,626.9z M956.9,610.8c-3.7,0-6.8,3-6.8,6.8c0,3.7,3,6.8,6.8,6.8c3.7,0,6.8-3,6.8-6.8
			C963.6,613.8,960.6,610.8,956.9,610.8z"/>
		<path fill="#00C3B6" d="M397.2,712.1c-5.2,0-9.4-4.2-9.4-9.4s4.2-9.4,9.4-9.4c5.2,0,9.4,4.2,9.4,9.4S402.4,712.1,397.2,712.1z
			 M397.2,696c-3.7,0-6.8,3-6.8,6.8c0,3.7,3,6.8,6.8,6.8c3.7,0,6.8-3,6.8-6.8C404,699,401,696,397.2,696z"/>
		<path fill="#00C3B6" d="M441.7,712.1c-5.2,0-9.4-4.2-9.4-9.4s4.2-9.4,9.4-9.4c5.2,0,9.4,4.2,9.4,9.4S446.9,712.1,441.7,712.1z
			 M441.7,696c-3.7,0-6.8,3-6.8,6.8c0,3.7,3,6.8,6.8,6.8c3.7,0,6.8-3,6.8-6.8C448.4,699,445.4,696,441.7,696z"/>
		<path fill="#00C3B6" d="M320.6,620.6c-5.2,0-9.4-4.2-9.4-9.4c0-5.2,4.2-9.4,9.4-9.4c5.2,0,9.4,4.2,9.4,9.4
			C330,616.3,325.8,620.6,320.6,620.6z M320.6,604.4c-3.7,0-6.8,3-6.8,6.8c0,3.7,3,6.8,6.8,6.8s6.8-3,6.8-6.8
			C327.3,607.4,324.3,604.4,320.6,604.4z"/>
		<path fill="#00C3B6" d="M397.2,722.5c-10.9,0-19.8-8.9-19.8-19.8c0-10.9,8.9-19.8,19.8-19.8c10.9,0,19.8,8.9,19.8,19.8
			C417,713.6,408.1,722.5,397.2,722.5z M397.2,685.6c-9.5,0-17.1,7.7-17.1,17.1s7.7,17.1,17.1,17.1c9.5,0,17.1-7.7,17.1-17.1
			S406.7,685.6,397.2,685.6z"/>
		<path fill="#00C3B6" d="M271.2,452.7c-5.2,0-9.4-4.2-9.4-9.4s4.2-9.4,9.4-9.4c5.2,0,9.4,4.2,9.4,9.4S276.4,452.7,271.2,452.7z
			 M271.2,436.5c-3.7,0-6.8,3-6.8,6.8c0,3.7,3,6.8,6.8,6.8c3.7,0,6.8-3,6.8-6.8C278,439.6,274.9,436.5,271.2,436.5z"/>
		<g>
			<path fill="#00C3B6" d="M116.4,312.9H30.9c-0.7,0-1.3-0.6-1.3-1.3c0-0.7,0.6-1.3,1.3-1.3h85.5c0.7,0,1.3,0.6,1.3,1.3
				C117.7,312.3,117.1,312.9,116.4,312.9z"/>
		</g>
		<g>
			<path fill="#00C3B6" d="M116.4,324.7H30.9c-0.7,0-1.3-0.6-1.3-1.3c0-0.7,0.6-1.3,1.3-1.3h85.5c0.7,0,1.3,0.6,1.3,1.3
				C117.7,324.1,117.1,324.7,116.4,324.7z"/>
		</g>
		<g>
			<path fill="#00C3B6" d="M116.4,336.5H30.9c-0.7,0-1.3-0.6-1.3-1.3s0.6-1.3,1.3-1.3h85.5c0.7,0,1.3,0.6,1.3,1.3
				S117.1,336.5,116.4,336.5z"/>
		</g>
		<g>
			<path fill="#00C3B6" d="M116.4,348.3H62c-0.7,0-1.3-0.6-1.3-1.3c0-0.7,0.6-1.3,1.3-1.3h54.4c0.7,0,1.3,0.6,1.3,1.3
				C117.7,347.7,117.1,348.3,116.4,348.3z"/>
		</g>
		<path fill="#00C3B6" d="M567.8,290.5h-10.1c-0.5,0-0.9-0.3-1.1-0.7l-5-8.7c-0.2-0.4-0.2-0.9,0-1.3l5-8.7c0.2-0.4,0.7-0.7,1.1-0.7
			h10.1c0.5,0,0.9,0.3,1.1,0.7l5,8.7c0.2,0.4,0.2,0.9,0,1.3l-5,8.7C568.7,290.2,568.3,290.5,567.8,290.5z M558.5,287.9h8.5l4.3-7.4
			l-4.3-7.4h-8.5l-4.3,7.4L558.5,287.9z"/>
		<path fill="#00C3B6" d="M588,290.5h-10.1c-0.5,0-0.9-0.3-1.1-0.7l-5-8.7c-0.2-0.4-0.2-0.9,0-1.3l5-8.7c0.2-0.4,0.7-0.7,1.1-0.7
			H588c0.5,0,0.9,0.3,1.1,0.7l5,8.7c0.2,0.4,0.2,0.9,0,1.3l-5,8.7C588.9,290.2,588.5,290.5,588,290.5z M578.7,287.9h8.5l4.3-7.4
			l-4.3-7.4h-8.5l-4.3,7.4L578.7,287.9z"/>
		<path fill="#00C3B6" d="M412.3,289.2h-15.1c-0.5,0-0.9-0.3-1.1-0.7c-0.2-0.4-0.2-0.9,0-1.3l7.5-13c0.5-0.8,1.8-0.8,2.3,0l7.5,13
			c0.2,0.4,0.2,0.9,0,1.3C413.2,288.9,412.8,289.2,412.3,289.2z M399.5,286.6H410l-5.2-9.1L399.5,286.6z"/>
		<path fill="#00C3B6" d="M412.3,317.1h-15.1c-0.5,0-0.9-0.3-1.1-0.7c-0.2-0.4-0.2-0.9,0-1.3l7.5-13c0.5-0.8,1.8-0.8,2.3,0l7.5,13
			c0.2,0.4,0.2,0.9,0,1.3C413.2,316.8,412.8,317.1,412.3,317.1z M399.5,314.4H410l-5.2-9.1L399.5,314.4z"/>
		<path fill="#00C3B6" d="M427.4,289.2h-15.1c-0.5,0-0.9-0.3-1.1-0.7c-0.2-0.4-0.2-0.9,0-1.3l7.5-13c0.2-0.4,0.7-0.7,1.1-0.7l0,0
			c0.5,0,0.9,0.3,1.1,0.7l7.5,13c0.2,0.4,0.2,0.9,0,1.3C428.3,288.9,427.8,289.2,427.4,289.2z M414.6,286.6h10.5l-5.2-9.1
			L414.6,286.6z"/>
		<path fill="#00C3B6" d="M719.1,608.4H697c-0.7,0-1.3-0.6-1.3-1.3V585c0-0.7,0.6-1.3,1.3-1.3h22.1c0.7,0,1.3,0.6,1.3,1.3v22.1
			C720.4,607.8,719.8,608.4,719.1,608.4z M698.3,605.8h19.5v-19.5h-19.5V605.8z"/>
		<path fill="#00C3B6" d="M714.4,578.6h-12.8c-0.7,0-1.3-0.6-1.3-1.3v-12.8c0-0.7,0.6-1.3,1.3-1.3h12.8c0.7,0,1.3,0.6,1.3,1.3v12.8
			C715.8,578,715.2,578.6,714.4,578.6z M703,575.9h10.1v-10.1H703V575.9z"/>
		<path fill="#00C3B6" d="M714.4,558.1h-12.8c-0.7,0-1.3-0.6-1.3-1.3V544c0-0.7,0.6-1.3,1.3-1.3h12.8c0.7,0,1.3,0.6,1.3,1.3v12.8
			C715.8,557.5,715.2,558.1,714.4,558.1z M703,555.4h10.1v-10.1H703V555.4z"/>
		<path fill="#00C3B6" d="M867.2,660.6h-12.8c-0.7,0-1.3-0.6-1.3-1.3v-12.8c0-0.7,0.6-1.3,1.3-1.3h12.8c0.7,0,1.3,0.6,1.3,1.3v12.8
			C868.5,660,867.9,660.6,867.2,660.6z M855.7,657.9h10.1v-10.1h-10.1V657.9z"/>
		<path fill="#00C3B6" d="M908.8,692.4H896c-0.7,0-1.3-0.6-1.3-1.3v-12.8c0-0.7,0.6-1.3,1.3-1.3h12.8c0.7,0,1.3,0.6,1.3,1.3v12.8
			C910.1,691.8,909.5,692.4,908.8,692.4z M897.3,689.7h10.1v-10.1h-10.1V689.7z"/>
		<path fill="#00C3B6" d="M284,590.4h-12.8c-0.7,0-1.3-0.6-1.3-1.3v-12.8c0-0.7,0.6-1.3,1.3-1.3H284c0.7,0,1.3,0.6,1.3,1.3V589
			C285.3,589.8,284.7,590.4,284,590.4z M272.5,587.7h10.1v-10.1h-10.1V587.7z"/>
		<path fill="#00C3B6" d="M726.5,931.8h-61.3c-0.7,0-1.3-0.6-1.3-1.3v-9.3c0-0.7,0.6-1.3,1.3-1.3h61.3c0.7,0,1.3,0.6,1.3,1.3v9.3
			C727.9,931.2,727.3,931.8,726.5,931.8z M666.6,929.1h58.6v-6.6h-58.6V929.1z"/>
		<path fill="#00C3B6" d="M745.6,915.2h-80.3c-0.7,0-1.3-0.6-1.3-1.3v-9.3c0-0.7,0.6-1.3,1.3-1.3h80.3c0.7,0,1.3,0.6,1.3,1.3v9.3
			C746.9,914.6,746.3,915.2,745.6,915.2z M666.6,912.6h77.7V906h-77.7V912.6z"/>
		<path fill="#00C3B6" d="M745.6,948.3h-80.3c-0.7,0-1.3-0.6-1.3-1.3v-9.3c0-0.7,0.6-1.3,1.3-1.3h80.3c0.7,0,1.3,0.6,1.3,1.3v9.3
			C746.9,947.7,746.3,948.3,745.6,948.3z M666.6,945.6h77.7V939h-77.7V945.6z"/>
		<path fill="#00C3B6" d="M909.7,342h-24.9c-0.7,0-1.3-0.6-1.3-1.3v-24.9c0-0.7,0.6-1.3,1.3-1.3c0.7,0,1.3,0.6,1.3,1.3v23.6h22.2
			v-23.6c0-0.7,0.6-1.3,1.3-1.3c0.7,0,1.3,0.6,1.3,1.3v24.9C911,341.4,910.4,342,909.7,342z"/>
		<path fill="#00C3B6" d="M945.4,342.6h-24.9c-0.7,0-1.3-0.6-1.3-1.3c0-0.7,0.6-1.3,1.3-1.3h23.6v-22.2h-23.6
			c-0.7,0-1.3-0.6-1.3-1.3c0-0.7,0.6-1.3,1.3-1.3h24.9c0.7,0,1.3,0.6,1.3,1.3v24.9C946.7,342,946.1,342.6,945.4,342.6z"/>
		<path fill="#00C3B6" d="M335.7,934.9h-24.9c-0.7,0-1.3-0.6-1.3-1.3c0-0.7,0.6-1.3,1.3-1.3h23.6v-22.2h-23.6
			c-0.7,0-1.3-0.6-1.3-1.3s0.6-1.3,1.3-1.3h24.9c0.7,0,1.3,0.6,1.3,1.3v24.9C337,934.4,336.4,934.9,335.7,934.9z"/>
		<path fill="#00C3B6" d="M289.2,436.5c-0.7,0-1.3-0.6-1.3-1.3v-31.1c0-0.7,0.6-1.3,1.3-1.3c0.7,0,1.3,0.6,1.3,1.3v31.1
			C290.5,435.9,289.9,436.5,289.2,436.5z"/>
		<path fill="#00C3B6" d="M271.2,436.5c-0.7,0-1.3-0.6-1.3-1.3v-31.1c0-0.7,0.6-1.3,1.3-1.3c0.7,0,1.3,0.6,1.3,1.3v31.1
			C272.5,435.9,271.9,436.5,271.2,436.5z"/>
		<path fill="#00C3B6" d="M445.3,317.1h-33c-0.7,0-1.3-0.6-1.3-1.3c0-0.7,0.6-1.3,1.3-1.3H444v-25.2h-16.6c-0.7,0-1.3-0.6-1.3-1.3
			s0.6-1.3,1.3-1.3h18c0.7,0,1.3,0.6,1.3,1.3v27.9C446.6,316.5,446.1,317.1,445.3,317.1z"/>
		<path fill="#00C3B6" d="M689.7,438.5c-0.7,0-1.3-0.6-1.3-1.3v-48.3c0-0.7,0.6-1.3,1.3-1.3h22.5c0.7,0,1.3,0.6,1.3,1.3
			c0,0.7-0.6,1.3-1.3,1.3h-21.2v47C691.1,437.9,690.5,438.5,689.7,438.5z"/>
		<path fill="#00C3B6" d="M327.1,85.2c-0.7,0-1.3-0.6-1.3-1.3V71.5c0-0.7,0.6-1.3,1.3-1.3h48.6c0.7,0,1.3,0.6,1.3,1.3
			s-0.6,1.3-1.3,1.3h-47.3v11.1C328.4,84.6,327.8,85.2,327.1,85.2z"/>
		<path fill="#00C3B6" d="M956.9,647.8H854.4c-0.7,0-1.3-0.6-1.3-1.3s0.6-1.3,1.3-1.3h101.1v-19.5c0-0.7,0.6-1.3,1.3-1.3
			c0.7,0,1.3,0.6,1.3,1.3v20.8C958.2,647.2,957.6,647.8,956.9,647.8z"/>
		<path fill="#00C3B6" d="M667.8,112.4c-0.5,0-0.9-0.2-1.1-0.7l-10.9-18.9l-10.9,18.9c-0.4,0.6-1.2,0.8-1.8,0.5
			c-0.6-0.4-0.8-1.2-0.5-1.8l12-20.9c0.5-0.8,1.8-0.8,2.3,0l12,20.9c0.4,0.6,0.1,1.4-0.5,1.8C668.3,112.4,668,112.4,667.8,112.4z"/>
		<path fill="#00C3B6" d="M667.8,85.2c-0.5,0-0.9-0.2-1.1-0.7l-10.9-18.9l-10.9,18.9c-0.4,0.6-1.2,0.8-1.8,0.5
			c-0.6-0.4-0.8-1.2-0.5-1.8l12-20.9c0.5-0.8,1.8-0.8,2.3,0l12,20.9c0.4,0.6,0.1,1.4-0.5,1.8C668.3,85.2,668,85.2,667.8,85.2z"/>
		<path fill="#00C3B6" d="M256.1,934.5c-0.5,0-0.9-0.2-1.1-0.7c-0.4-0.6-0.1-1.4,0.5-1.8l18.9-10.9l-18.9-10.9
			c-0.6-0.4-0.8-1.2-0.5-1.8c0.4-0.6,1.2-0.9,1.8-0.5l20.9,12c0.4,0.2,0.7,0.7,0.7,1.1c0,0.5-0.3,0.9-0.7,1.1l-20.9,12.1
			C256.6,934.5,256.3,934.5,256.1,934.5z"/>
		<path fill="#00C3B6" d="M283.3,934.5c-0.5,0-0.9-0.2-1.1-0.7c-0.4-0.6-0.1-1.4,0.5-1.8l18.9-10.9l-18.9-10.9
			c-0.6-0.4-0.8-1.2-0.5-1.8c0.4-0.6,1.2-0.9,1.8-0.5l20.9,12c0.4,0.2,0.7,0.7,0.7,1.1c0,0.5-0.3,0.9-0.7,1.1L284,934.4
			C283.8,934.5,283.5,934.5,283.3,934.5z"/>
		<path fill="#00C3B6" d="M320.6,604.4c-0.7,0-1.3-0.6-1.3-1.3v-12.7h-48c-0.7,0-1.3-0.6-1.3-1.3c0-0.7,0.6-1.3,1.3-1.3h49.4
			c0.7,0,1.3,0.6,1.3,1.3v14C321.9,603.8,321.3,604.4,320.6,604.4z"/>
		<path fill="#00C3B6" d="M896,692.4h-18c-0.7,0-1.3-0.6-1.3-1.3v-35.3c0-0.7,0.6-1.3,1.3-1.3h43.2c0.7,0,1.3,0.6,1.3,1.3
			c0,0.7-0.6,1.3-1.3,1.3h-41.9v32.6H896c0.7,0,1.3,0.6,1.3,1.3C897.3,691.8,896.8,692.4,896,692.4z"/>
	</g>
	<g>
		<path fill="#FFFFFF" d="M178.4,584.5H89.5c-4.9,0-8.9-4-8.9-8.9V424.4c0-4.9,4-8.9,8.9-8.9h88.9c4.9,0,8.9,4,8.9,8.9v151.2
			C187.3,580.5,183.3,584.5,178.4,584.5z"/>
		<g>
			<path fill="#113A52" d="M178.4,589.8H89.5c-7.8,0-14.2-6.4-14.2-14.2V424.4c0-7.8,6.4-14.2,14.2-14.2h88.9
				c7.8,0,14.2,6.4,14.2,14.2v151.2C192.6,583.4,186.2,589.8,178.4,589.8z M89.5,420.8c-2,0-3.6,1.6-3.6,3.6v151.2
				c0,2,1.6,3.6,3.6,3.6h88.9c2,0,3.6-1.6,3.6-3.6V424.4c0-2-1.6-3.6-3.6-3.6H89.5z"/>
		</g>
		<rect x="89.5" y="424.4" fill="#00C3B6" width="88.9" height="129"/>
		<circle fill="#113A52" cx="133.9" cy="566.7" r="8.9"/>
	</g>
	<g>
		<path fill="#FFFFFF" d="M583,559.7l-127.6-40.6v-61.6L583,416.8c4-1.3,8,1.7,8,5.9v131.1C591.1,558,587,560.9,583,559.7z"/>
		<polygon fill="#FFFFFF" points="461.6,593 437,593 418.5,519.1 443.2,519.1 		"/>
		<path fill="#FF7419" d="M591.1,519.1c17,0,30.8-13.8,30.8-30.8c0-17-13.8-30.8-30.8-30.8V519.1z"/>
		<path fill="#00C3B6" d="M455.5,457.4h-37c-17,0-30.8,13.8-30.8,30.8l0,0c0,17,13.8,30.8,30.8,30.8h37V457.4z"/>
		<path fill="#FFFFFF" d="M418.5,457.4c-17,0-30.8,13.8-30.8,30.8c0,3.2,0.5,6.3,1.4,9.2c3.9-12.5,15.6-21.6,29.4-21.6h37v-18.5
			H418.5z"/>
		<g>
			<path fill="#113A52" d="M584.9,565.2c-1.2,0-2.3-0.2-3.5-0.5h0l-131.2-41.8v-69.4l131.2-41.8c3.5-1.1,7.3-0.5,10.2,1.7
				c3,2.2,4.7,5.5,4.7,9.2v131.1c0,3.7-1.7,7.1-4.7,9.2C589.7,564.5,587.3,565.2,584.9,565.2z M584.6,554.6c0.3,0.1,0.5,0,0.8-0.1
				c0.2-0.2,0.4-0.4,0.4-0.7V422.7c0-0.3-0.1-0.5-0.4-0.7c-0.2-0.2-0.5-0.2-0.8-0.1l-123.9,39.4v53.9L584.6,554.6z"/>
		</g>
		<g>
			<path fill="#113A52" d="M460.8,524.4h-42.3c-19.9,0-36.1-16.2-36.1-36.1c0-19.9,16.2-36.1,36.1-36.1h42.3V524.4z M418.5,462.7
				c-14.1,0-25.5,11.5-25.5,25.5c0,14.1,11.5,25.5,25.5,25.5h31.7v-51.1H418.5z"/>
		</g>
		<g>
			<path fill="#113A52" d="M591.1,524.4h-5.3v-72.2h5.3c19.9,0,36.1,16.2,36.1,36.1C627.2,508.2,611,524.4,591.1,524.4z
				 M596.4,463.3v50c11.5-2.4,20.2-12.7,20.2-25C616.6,476,607.9,465.7,596.4,463.3z"/>
		</g>
		<g>
			<path fill="#113A52" d="M461.6,598.3H437c-2.4,0-4.5-1.7-5.1-4l-18.5-74c-0.4-1.6,0-3.3,1-4.5c1-1.3,2.5-2,4.2-2h24.7
				c2.4,0,4.5,1.7,5.1,4l18.5,74c0.4,1.6,0,3.3-1,4.5C464.8,597.6,463.3,598.3,461.6,598.3z M441.1,587.7h13.7L439,524.4h-13.7
				L441.1,587.7z"/>
		</g>
	</g>
	<g>
		<path fill="#FFFFFF" d="M737.6,250c0-22.4,27.3-40.6,60.9-40.6c33.6,0,60.9,18.2,60.9,40.6c0,19.8-21.2,36.2-49.2,39.9
			c2.1,7.8,7,19.5,18.7,31.2c0,0-31.8-8-39.1-30.9C760.3,287.4,737.6,270.5,737.6,250z"/>
		<path fill="#FFFFFF" d="M788.3,210c0-0.2,0-0.4,0-0.6c0-22.4-27.3-40.6-60.9-40.6s-60.9,18.2-60.9,40.6
			c0,19.8,21.2,36.2,49.2,39.9c-2.1,7.8-7,19.5-18.7,31.2c0,0,31.8-8,39.1-30.9c0.5,0,1-0.1,1.5-0.2
			C738.1,229.5,759.8,213.2,788.3,210z"/>
		<circle fill="#00C3B6" cx="697" cy="209.4" r="5.1"/>
		<circle fill="#00C3B6" cx="717.3" cy="209.4" r="5.1"/>
		<circle fill="#00C3B6" cx="737.6" cy="209.4" r="5.1"/>
		<circle fill="#00C3B6" cx="757.9" cy="209.4" r="5.1"/>
		<g>
			<path fill="#113A52" d="M829,326.4c-0.4,0-0.9-0.1-1.3-0.2c-1.4-0.3-31.8-8.2-41.6-31.1c-31.3-4.1-53.8-22.7-53.8-45.1
				c0-25.3,29.7-45.9,66.2-45.9c36.5,0,66.2,20.6,66.2,45.9c0,20.6-19.6,38.4-47.6,44.1c2.6,6.6,7.2,14.9,15.5,23.3
				c1.7,1.7,2,4.3,0.9,6.3C832.6,325.4,830.9,326.4,829,326.4z M798.5,214.7c-30.7,0-55.6,15.8-55.6,35.3
				c0,17.4,20.4,32.4,47.5,34.9c2.1,0.2,3.9,1.6,4.5,3.7c2.8,8.9,10.2,15.3,17.4,19.6c-3.8-6.5-6-12.4-7.2-17
				c-0.4-1.5-0.1-3,0.7-4.3c0.8-1.3,2.2-2.1,3.7-2.3c25.8-3.4,44.6-17.9,44.6-34.6C854.1,230.5,829.2,214.7,798.5,214.7z"/>
		</g>
		<g>
			<path fill="#113A52" d="M697,285.7c-1.9,0-3.6-1-4.6-2.7c-1.2-2.1-0.8-4.7,0.9-6.3c8.3-8.3,13-16.6,15.5-23.3
				c-27.9-5.6-47.6-23.5-47.6-44.1c0-25.3,29.7-45.9,66.2-45.9c36.5,0,66.2,20.6,66.2,45.9c0,0.3,0,0.6,0,0.8
				c-0.1,2.6-2.1,4.7-4.7,5c-25.9,2.9-45.6,17.6-46,34.3c0,2-1.2,3.7-2.9,4.6c-9.6,23.2-40.4,31.2-41.8,31.5
				C697.9,285.7,697.4,285.7,697,285.7z M727.5,174.1c-30.7,0-55.6,15.8-55.6,35.3c0,16.7,18.8,31.3,44.6,34.6
				c1.5,0.2,2.9,1,3.7,2.3c0.8,1.3,1.1,2.8,0.7,4.3c-1.2,4.6-3.4,10.5-7.2,17c7.2-4.4,14.5-10.8,17.4-19.6c0.3-0.9,0.9-1.8,1.6-2.4
				c2.7-19.5,22.8-35.6,50.1-40.2C779.8,187.9,756.1,174.1,727.5,174.1z"/>
		</g>
		<circle fill="#FF7419" cx="768.1" cy="250" r="5.1"/>
		<circle fill="#FF7419" cx="788.4" cy="250" r="5.1"/>
		<circle fill="#FF7419" cx="808.7" cy="250" r="5.1"/>
		<circle fill="#FF7419" cx="829" cy="250" r="5.1"/>
	</g>
	<g>
		<circle fill="#FFFFFF" cx="241.2" cy="701.7" r="51.4"/>
		<g>
			<path fill="#113A52" d="M241.2,758.4c-31.3,0-56.7-25.4-56.7-56.7c0-31.3,25.4-56.7,56.7-56.7c31.3,0,56.7,25.4,56.7,56.7
				C297.9,733,272.4,758.4,241.2,758.4z M241.2,655.5c-25.4,0-46.2,20.7-46.2,46.2c0,25.4,20.7,46.1,46.2,46.1s46.1-20.7,46.1-46.1
				C287.3,676.2,266.6,655.5,241.2,655.5z"/>
		</g>
		<path fill="#00C3B6" d="M241.2,741.7c-22.1,0-40-17.9-40-40s17.9-40,40-40c22.1,0,40,17.9,40,40S263.2,741.7,241.2,741.7z"/>
		<g>
			<path fill="#113A52" d="M252.6,872.7h-22.9c-2.9,0-5.3-2.4-5.3-5.3v-68.6c0-2.9,2.4-5.3,5.3-5.3h22.9c2.9,0,5.3,2.4,5.3,5.3v68.6
				C257.9,870.4,255.5,872.7,252.6,872.7z M235,862.1h12.3v-58H235V862.1z"/>
		</g>
		<g>
			<rect x="235.9" y="753.1" fill="#113A52" width="10.6" height="45.7"/>
		</g>
		<rect x="235.4" y="804.6" fill="#FF7419" width="5.7" height="57.2"/>
		<rect x="241.2" y="804.6" fill="#FFFFFF" width="5.7" height="57.2"/>
	</g>
	<g>
		<g id="XMLID_69_">
			<g>
				<polygon fill="#00C3B6" points="289.2,228.3 317.2,209 317.2,297.1 253.1,253.2 253.2,253 				"/>
				<polygon fill="#FFFFFF" points="317.2,209 289.2,228.3 289.2,192.8 				"/>
				<polygon fill="#00C3B6" points="317.2,297.1 165.1,297.1 229.2,253.2 241.2,245 253.1,253.2 				"/>
				<polygon fill="#FFFFFF" points="289.2,192.8 289.2,228.3 253.2,253 253.1,253.2 241.2,245 229.2,253.2 229.1,253 193.1,228.3 
					193.1,192.8 193.1,145 289.2,145 				"/>
				<polygon fill="#00C3B6" points="193.1,228.3 229.1,253 229.2,253.2 165.1,297.1 165.1,209 				"/>
				<polygon fill="#FFFFFF" points="193.1,192.8 193.1,228.3 165.1,209 				"/>
			</g>
		</g>
		<g>
			<g>
				<path fill="#113A52" d="M317.2,302.3c-1,0-2.1-0.3-3-0.9l-73.1-50l-73.1,50c-1.6,1.1-3.7,1.2-5.5,0.3c-1.7-0.9-2.8-2.7-2.8-4.7
					V209c0-1.9,1-3.6,2.6-4.6l28-16.2l5.3,9.2l-25.4,14.7v75l67.8-46.4c1.8-1.2,4.2-1.2,6,0l67.8,46.4v-75l-25.4-14.7l5.3-9.2
					l28,16.2c1.6,0.9,2.6,2.7,2.6,4.6v88.1c0,2-1.1,3.8-2.8,4.7C318.9,302.1,318,302.3,317.2,302.3z"/>
			</g>
			<g>
				<path fill="#113A52" d="M294.5,229h-10.6v-78.8h-85.5V229h-10.6v-84c0-2.9,2.4-5.3,5.3-5.3h96.1c2.9,0,5.3,2.4,5.3,5.3V229z"/>
			</g>
			<g>
				<rect x="165.1" y="291.8" fill="#113A52" width="152.1" height="10.6"/>
			</g>
			<g>
				
					<rect x="158.3" y="225.7" transform="matrix(0.824 0.5665 -0.5665 0.824 165.5699 -71.0305)" fill="#113A52" width="77.7" height="10.6"/>
			</g>
			<g>
				
					<rect x="279.9" y="192.2" transform="matrix(0.5664 0.8241 -0.8241 0.5664 314.0587 -134.854)" fill="#113A52" width="10.6" height="77.7"/>
			</g>
			<g>
				<rect x="209.1" y="159.7" fill="#113A52" width="64" height="10.6"/>
			</g>
			<g>
				<rect x="209.1" y="175.7" fill="#113A52" width="64" height="10.6"/>
			</g>
			<g>
				<rect x="209.1" y="191.7" fill="#113A52" width="64" height="10.6"/>
			</g>
			<g>
				<rect x="209.1" y="207.7" fill="#113A52" width="48" height="10.6"/>
			</g>
			<g>
				<rect x="209.1" y="223.7" fill="#113A52" width="48" height="10.6"/>
			</g>
		</g>
	</g>
	<g>
		<rect x="841.1" y="418.9" fill="#FFFFFF" width="52.5" height="21.9"/>
		<path fill="#00C3B6" d="M893.5,458.2v-17.5h-52.5v17.5c0,11.4,7.3,21.1,17.5,24.7v38c-10.2,3.6-17.5,13.3-17.5,24.7V585h52.5
			v-39.4c0-11.4-7.3-21.1-17.5-24.7v-38C886.2,479.3,893.5,469.6,893.5,458.2z"/>
		<g>
			<path fill="#113A52" d="M898.8,590.3h-63v-44.6c0-12,6.9-22.9,17.5-28.2v-31c-10.6-5.3-17.5-16.2-17.5-28.2v-44.6h63v44.6
				c0,12-6.9,22.9-17.5,28.2v31c10.6,5.3,17.5,16.2,17.5,28.2V590.3z M846.4,579.7h41.9v-34.1c0-8.8-5.6-16.8-14-19.7l-3.5-1.3
				v-45.5l3.5-1.3c8.4-3,14-10.9,14-19.7v-34.1h-41.9v34.1c0,8.8,5.6,16.8,14,19.7l3.5,1.3v45.5l-3.5,1.3c-8.4,3-14,10.9-14,19.7
				V579.7z"/>
		</g>
	</g>
	<g>
		<g>
			<path fill="#113A52" d="M872.4,759.9h-10.6c0-0.9,0-1.8,0-2.6l10.6-0.3C872.4,757.9,872.4,758.9,872.4,759.9z M655.2,759.9h-10.6
				c0-3.7,0.2-7.4,0.5-11.1l10.5,1C655.3,753.2,655.2,756.5,655.2,759.9z M861,747.2c-0.4-3.3-1-6.7-1.7-9.9l10.3-2.3
				c0.8,3.6,1.4,7.3,1.9,10.9L861,747.2z M657.1,739.9l-10.4-2c0.7-3.6,1.6-7.2,2.7-10.8l10.1,3
				C658.6,733.3,657.8,736.6,657.1,739.9z M856.6,727.6c-1-3.2-2.3-6.3-3.6-9.4l9.7-4.3c1.5,3.4,2.8,6.9,4,10.4L856.6,727.6z
				 M662.9,720.7l-9.8-4c1.4-3.4,3-6.8,4.7-10l9.3,5C665.6,714.5,664.2,717.6,662.9,720.7z M848.5,709.2c-1.6-2.9-3.4-5.8-5.4-8.5
				l8.7-6.1c2.1,3,4.1,6.2,5.9,9.4L848.5,709.2z M672.3,702.9l-8.8-5.8c2-3.1,4.3-6.1,6.6-8.9l8.2,6.7
				C676.2,697.4,674.1,700.1,672.3,702.9z M837,692.8c-2.2-2.5-4.5-5-6.9-7.3l7.3-7.6c2.7,2.6,5.2,5.3,7.6,8.1L837,692.8z
				 M685,687.3l-7.5-7.4c2.6-2.6,5.3-5.2,8.2-7.5l6.8,8.1C689.8,682.6,687.3,684.9,685,687.3z M822.5,678.8c-2.6-2.1-5.4-4-8.2-5.9
				l5.7-8.9c3.1,2,6.1,4.2,9,6.4L822.5,678.8z M700.4,674.4l-6-8.7c3.1-2.1,6.2-4,9.5-5.8l5.1,9.3
				C706.1,670.8,703.2,672.5,700.4,674.4z M805.7,667.9c-3-1.5-6.1-2.9-9.2-4.2l3.9-9.8c3.4,1.4,6.8,2.9,10.1,4.6L805.7,667.9z
				 M718,664.8l-4.1-9.7c3.4-1.4,6.9-2.7,10.4-3.8l3.2,10.1C724.3,662.3,721.1,663.5,718,664.8z M787,660.6
				c-3.2-0.9-6.5-1.7-9.8-2.3l1.9-10.4c3.6,0.7,7.3,1.5,10.8,2.5L787,660.6z M737.2,658.8l-2.2-10.4c3.6-0.8,7.3-1.3,11-1.7
				l1.2,10.5C743.8,657.6,740.4,658.1,737.2,658.8z M767.2,656.9c-2.9-0.2-5.8-0.4-8.7-0.4l-1.3,0L757,646l1.4,0
				c3.2,0,6.5,0.1,9.6,0.4L767.2,656.9z"/>
		</g>
		<polygon fill="#113A52" points="867.1,776 850.9,759.9 883.2,759.9 		"/>
		<g id="XMLID_68_">
			<g>
				<path fill="#FF7419" d="M815.1,703.3c14.5,14.5,23.4,34.5,23.4,56.6c0,22.1-9,42.1-23.4,56.6l-56.6-56.6L815.1,703.3z"/>
				<path fill="#00C3B6" d="M815.1,703.3l-56.6,56.6v-80C780.6,679.9,800.6,688.8,815.1,703.3z"/>
				<path fill="#FFFFFF" d="M758.5,759.9l56.6,56.6c-14.5,14.5-34.5,23.4-56.6,23.4c-22.1,0-42.1-9-56.6-23.4L758.5,759.9z"/>
				<path fill="#FFFFFF" d="M758.5,679.9v80l-56.6,56.6c-14.5-14.5-23.4-34.5-23.4-56.6C678.5,715.7,714.3,679.9,758.5,679.9z"/>
			</g>
		</g>
		<g>
			<g>
				<path fill="#113A52" d="M758.5,845.2c-22.8,0-44.2-8.9-60.3-25c-16.1-16.1-25-37.6-25-60.3c0-47,38.3-85.3,85.3-85.3
					c22.8,0,44.2,8.9,60.3,25l0,0c16.1,16.1,25,37.6,25,60.3c0,22.8-8.9,44.2-25,60.3C802.7,836.3,781.2,845.2,758.5,845.2z
					 M758.5,685.2c-41.2,0-74.7,33.5-74.7,74.7c0,19.9,7.8,38.7,21.9,52.8c14.1,14.1,32.9,21.9,52.8,21.9c19.9,0,38.7-7.8,52.8-21.9
					c14.1-14.1,21.9-32.9,21.9-52.8c0-19.9-7.8-38.7-21.9-52.8l0,0C797.2,692.9,778.4,685.2,758.5,685.2z"/>
			</g>
			<g>
				<polygon fill="#113A52" points="811.9,820.8 753.2,762.1 753.2,679.9 763.8,679.9 763.8,757.7 819.4,813.3 				"/>
			</g>
			<g>
				<polygon fill="#113A52" points="705.1,820.8 697.6,813.3 811.9,699 819.4,706.5 				"/>
			</g>
		</g>
	</g>
	<g>
		<rect x="441.2" y="50.6" fill="#FFFFFF" width="116.7" height="158.4"/>
		<g>
			<path fill="#113A52" d="M563.2,214.3H435.9V45.4h127.3V214.3z M446.5,203.7h106.1V55.9H446.5V203.7z"/>
		</g>
		<rect x="462.1" y="104.8" fill="#FF7419" width="8.3" height="25"/>
		<rect x="478.7" y="79.8" fill="#00C3B6" width="8.3" height="50"/>
		<rect x="495.4" y="88.2" fill="#FF7419" width="8.3" height="41.7"/>
		<rect x="512.1" y="104.8" fill="#00C3B6" width="8.3" height="25"/>
		<rect x="528.7" y="71.5" fill="#FF7419" width="8.3" height="58.3"/>
		<g>
			<rect x="453.7" y="132.9" fill="#113A52" width="91.7" height="10.6"/>
		</g>
		<g>
			<rect x="453.7" y="157.9" fill="#113A52" width="91.7" height="10.6"/>
		</g>
		<g>
			<rect x="453.7" y="174.5" fill="#113A52" width="62.5" height="10.6"/>
		</g>
	</g>
	<g>
		<rect x="407.6" y="820.6" fill="#FFFFFF" width="184.7" height="107"/>
		<polygon fill="#00C3B6" points="407.6,820.6 431.9,844.9 568.1,844.9 592.4,820.6 		"/>
		<g>
			<path fill="#113A52" d="M592.4,932.8H407.6c-2.9,0-5.3-2.4-5.3-5.3v-107c0-2.9,2.4-5.3,5.3-5.3h184.7c2.9,0,5.3,2.4,5.3,5.3v107
				C597.7,930.5,595.3,932.8,592.4,932.8z M412.9,922.3h174.2v-96.4H412.9V922.3z"/>
		</g>
		<g>
			<path fill="#113A52" d="M568.1,850.2H431.9c-1.4,0-2.7-0.6-3.7-1.5l-24.3-24.3c-1.5-1.5-2-3.8-1.1-5.8c0.8-2,2.7-3.3,4.9-3.3
				h184.7c2.1,0,4.1,1.3,4.9,3.3c0.8,2,0.4,4.3-1.1,5.8l-24.3,24.3C570.8,849.6,569.5,850.2,568.1,850.2z M434.1,839.6h131.7
				l13.7-13.7H420.4L434.1,839.6z"/>
		</g>
		<g>
			<path fill="#113A52" d="M534.5,820.6h-10.6v-19h-47.8v19h-10.6v-24.3c0-2.9,2.4-5.3,5.3-5.3h58.3c2.9,0,5.3,2.4,5.3,5.3V820.6z"
				/>
		</g>
		<g>
			<path fill="#113A52" d="M451.4,869.6c-8.3,0-15-6.7-15-15v-9.7c0-2.9,2.4-5.3,5.3-5.3h19.4c2.9,0,5.3,2.4,5.3,5.3v9.7
				C466.4,862.9,459.7,869.6,451.4,869.6z M447,850.2v4.4c0,2.4,2,4.4,4.4,4.4c2.4,0,4.4-2,4.4-4.4v-4.4H447z"/>
		</g>
		<g>
			<path fill="#113A52" d="M548.6,869.6c-8.3,0-15-6.7-15-15v-9.7c0-2.9,2.4-5.3,5.3-5.3h19.4c2.9,0,5.3,2.4,5.3,5.3v9.7
				C563.6,862.9,556.9,869.6,548.6,869.6z M544.2,850.2v4.4c0,2.4,2,4.4,4.4,4.4c2.4,0,4.4-2,4.4-4.4v-4.4H544.2z"/>
		</g>
	</g>
</g>
</svg>
