<?xml version="1.0" encoding="iso-8859-1"?>
<!-- Generator: Adobe Illustrator 19.0.0, SVG Export Plug-In . SVG Version: 6.00 Build 0)  -->
<svg version="1.1" id="Capa_1" xmlns="http://www.w3.org/2000/svg" xmlns:xlink="http://www.w3.org/1999/xlink" x="0px" y="0px"
	 viewBox="0 0 512 512" style="enable-background:new 0 0 512 512;" xml:space="preserve">
<g>
	<path style="fill:#B0D1CF;" d="M354.335,127.663c-4.142,0-7.5-3.358-7.5-7.5V67.048c0-8.965,7.294-16.259,16.259-16.259h44.885
		c4.142,0,7.5,3.358,7.5,7.5s-3.358,7.5-7.5,7.5h-44.885c-0.694,0-1.259,0.565-1.259,1.259v53.115
		C361.835,124.305,358.477,127.663,354.335,127.663z"/>
	<path style="fill:#B0D1CF;" d="M157.665,127.663c-4.142,0-7.5-3.358-7.5-7.5V67.048c0-0.694-0.565-1.259-1.259-1.259h-44.885
		c-4.142,0-7.5-3.358-7.5-7.5s3.358-7.5,7.5-7.5h44.885c8.965,0,16.259,7.294,16.259,16.259v53.115
		C165.165,124.305,161.807,127.663,157.665,127.663z"/>
	<path style="fill:#B0D1CF;" d="M256,127.665c-4.142,0-7.5-3.358-7.5-7.5V55.433c0-4.142,3.358-7.5,7.5-7.5s7.5,3.358,7.5,7.5
		v64.732C263.5,124.307,260.142,127.665,256,127.665z"/>
	<path style="fill:#B0D1CF;" d="M148.906,461.211h-44.885c-4.142,0-7.5-3.358-7.5-7.5s3.358-7.5,7.5-7.5h44.885
		c0.694,0,1.259-0.565,1.259-1.259v-53.115c0-4.142,3.358-7.5,7.5-7.5s7.5,3.358,7.5,7.5v53.115
		C165.165,453.917,157.871,461.211,148.906,461.211z"/>
	<path style="fill:#B0D1CF;" d="M407.979,461.211h-44.885c-8.965,0-16.259-7.294-16.259-16.259v-53.115c0-4.142,3.358-7.5,7.5-7.5
		s7.5,3.358,7.5,7.5v53.115c0,0.694,0.565,1.259,1.259,1.259h44.885c4.142,0,7.5,3.358,7.5,7.5S412.122,461.211,407.979,461.211z"/>
	<path style="fill:#B0D1CF;" d="M256,464.067c-4.142,0-7.5-3.358-7.5-7.5v-64.732c0-4.142,3.358-7.5,7.5-7.5s7.5,3.358,7.5,7.5
		v64.732C263.5,460.709,260.142,464.067,256,464.067z"/>
</g>
<path style="fill:#DCF9F7;" d="M417.045,130.481v258.021c0,3.248-2.629,5.878-5.878,5.878H100.833c-3.248,0-5.878-2.629-5.878-5.878
	V130.481c0-7.104,5.756-12.86,12.849-12.86h296.38C411.278,117.621,417.045,123.377,417.045,130.481z"/>
<path style="fill:#B0D1CF;" d="M417.045,130.481v51.153H94.955v-51.153c0-7.104,5.756-12.86,12.849-12.86h296.38
	C411.278,117.621,417.045,123.377,417.045,130.481z"/>
<path style="fill:#5089DD;" d="M417.04,166.169H94.955v-35.69c0-7.1,5.756-12.857,12.857-12.857h296.372
	c7.1,0,12.857,5.756,12.857,12.857v35.69H417.04z"/>
<path style="fill:#DCF9F7;" d="M293.726,150.52H138.154c-4.267,0-7.726-3.459-7.726-7.726s3.459-7.726,7.726-7.726h155.572
	c4.267,0,7.726,3.459,7.726,7.726S297.993,150.52,293.726,150.52z"/>
<path style="fill:#14C4BB;" d="M326.415,150.044c-4.267,0-7.726-3.459-7.726-7.726v-0.844c0-4.267,3.459-7.726,7.726-7.726
	s7.726,3.459,7.726,7.726v0.844C334.141,146.585,330.682,150.044,326.415,150.044z"/>
<path style="fill:#F96982;" d="M350.128,150.044c-4.267,0-7.726-3.459-7.726-7.726v-0.844c0-4.267,3.459-7.726,7.726-7.726
	s7.726,3.459,7.726,7.726v0.844C357.854,146.585,354.395,150.044,350.128,150.044z"/>
<path style="fill:#F9B767;" d="M373.841,150.044c-4.267,0-7.726-3.459-7.726-7.726v-0.844c0-4.267,3.459-7.726,7.726-7.726
	s7.726,3.459,7.726,7.726v0.844C381.567,146.585,378.108,150.044,373.841,150.044z"/>
<g>
	<path style="fill:#FF433E;" d="M452.631,77.011H421.88c-5.144,0-9.314-4.17-9.314-9.314V36.946c0-5.144,4.17-9.314,9.314-9.314
		h30.751c5.144,0,9.314,4.17,9.314,9.314v30.751C461.946,72.841,457.775,77.011,452.631,77.011z"/>
	<path style="fill:#FF433E;" d="M59.369,77.011H90.12c5.144,0,9.314-4.17,9.314-9.314V36.946c0-5.144-4.17-9.314-9.314-9.314H59.369
		c-5.144,0-9.314,4.17-9.314,9.314v30.751C50.054,72.841,54.225,77.011,59.369,77.011z"/>
</g>
<path style="fill:#14C4BB;" d="M231.31,9.314v30.751c0,5.144,4.17,9.314,9.314,9.314h30.751c5.144,0,9.314-4.17,9.314-9.314V9.314
	c0-5.144-4.17-9.314-9.314-9.314h-30.751C235.48,0,231.31,4.17,231.31,9.314z"/>
<g>
	<path style="fill:#FF433E;" d="M59.369,434.989H90.12c5.144,0,9.314,4.17,9.314,9.314v30.751c0,5.144-4.17,9.314-9.314,9.314
		H59.369c-5.144,0-9.314-4.17-9.314-9.314v-30.751C50.054,439.159,54.225,434.989,59.369,434.989z"/>
	<path style="fill:#FF433E;" d="M452.631,434.989H421.88c-5.144,0-9.314,4.17-9.314,9.314v30.751c0,5.144,4.17,9.314,9.314,9.314
		h30.751c5.144,0,9.314-4.17,9.314-9.314v-30.751C461.946,439.159,457.775,434.989,452.631,434.989z"/>
</g>
<path style="fill:#14C4BB;" d="M280.69,502.686v-30.751c0-5.144-4.17-9.314-9.314-9.314h-30.751c-5.144,0-9.314,4.17-9.314,9.314
	v30.751c0,5.144,4.17,9.314,9.314,9.314h30.751C276.52,512,280.69,507.83,280.69,502.686z"/>
<g>
	<path style="fill:#2358C1;" d="M181.757,319.731c-1.977,0-3.955-0.755-5.463-2.263l-34.355-34.355
		c-3.018-3.017-3.018-7.909,0-10.927l34.355-34.355c3.017-3.017,7.909-3.017,10.927,0s3.018,7.909,0,10.927l-28.892,28.892
		l28.892,28.892c3.018,3.017,3.018,7.909,0,10.927C185.711,318.976,183.734,319.731,181.757,319.731z"/>
	<path style="fill:#2358C1;" d="M330.243,319.731c-1.977,0-3.955-0.755-5.463-2.263c-3.018-3.017-3.018-7.909,0-10.927
		l28.892-28.892l-28.892-28.892c-3.018-3.017-3.018-7.909,0-10.927c3.017-3.017,7.909-3.017,10.927,0l34.355,34.355
		c3.018,3.017,3.018,7.909,0,10.927l-34.355,34.355C334.198,318.976,332.221,319.731,330.243,319.731z"/>
	<path style="fill:#2358C1;" d="M210.893,319.732c-1.228,0-2.474-0.294-3.633-0.912c-3.764-2.011-5.186-6.692-3.176-10.455
		l34.261-64.146c2.011-3.765,6.691-5.186,10.455-3.176c3.764,2.011,5.186,6.692,3.176,10.455l-34.261,64.146
		C216.324,318.25,213.653,319.732,210.893,319.732z"/>
	<path style="fill:#2358C1;" d="M253.816,318.881c-4.267,0-7.726-3.459-7.726-7.726v-0.78c0-4.267,3.459-7.726,7.726-7.726
		c4.267,0,7.726,3.459,7.726,7.726v0.78C261.543,315.422,258.083,318.881,253.816,318.881z"/>
	<path style="fill:#2358C1;" d="M278.981,318.881c-4.267,0-7.726-3.459-7.726-7.726v-0.78c0-4.267,3.459-7.726,7.726-7.726
		s7.726,3.459,7.726,7.726v0.78C286.708,315.422,283.249,318.881,278.981,318.881z"/>
	<path style="fill:#2358C1;" d="M304.146,318.881c-4.267,0-7.726-3.459-7.726-7.726v-0.78c0-4.267,3.459-7.726,7.726-7.726
		s7.726,3.459,7.726,7.726v0.78C311.872,315.422,308.413,318.881,304.146,318.881z"/>
</g>
<g>
</g>
<g>
</g>
<g>
</g>
<g>
</g>
<g>
</g>
<g>
</g>
<g>
</g>
<g>
</g>
<g>
</g>
<g>
</g>
<g>
</g>
<g>
</g>
<g>
</g>
<g>
</g>
<g>
</g>
</svg>
