<?xml version="1.0" encoding="iso-8859-1"?>
<!-- Generator: Adobe Illustrator 21.0.0, SVG Export Plug-In . SVG Version: 6.00 Build 0)  -->
<svg version="1.1" id="Capa_1" xmlns="http://www.w3.org/2000/svg" xmlns:xlink="http://www.w3.org/1999/xlink" x="0px" y="0px"
	 viewBox="0 0 597.829 597.829" style="enable-background:new 0 0 597.829 597.829;" xml:space="preserve">
<g>
	<g>
		<g id="flat_10_">
			<polygon style="fill:#DADDDF;" points="376.936,577.564 349.578,486.37 248.251,486.37 220.893,577.564 187.455,577.564 
				187.455,597.829 410.374,597.829 410.374,577.564 			"/>
			<path style="fill:#4398D1;" d="M35.464,81.062c-16.79,0-30.398,13.608-30.398,30.398v314.114h587.697V111.46
				c0-16.79-13.608-30.398-30.398-30.398H35.464z"/>
			<path style="fill:#3E8CC7;" d="M562.365,81.062h-91.194L126.659,425.573h466.104V111.46
				C592.763,94.67,579.155,81.062,562.365,81.062z"/>
			<path style="fill:#DADDDF;" d="M5.066,425.573v30.398c0,16.79,13.608,30.398,30.398,30.398h526.9
				c16.79,0,30.398-13.608,30.398-30.398v-30.398H5.066z"/>
			<polygon style="fill:#C1C7C9;" points="358.698,516.768 349.578,486.37 248.251,486.37 239.132,516.768 			"/>
			<path style="fill:#87CED9;" d="M96.261,0h405.308c16.79,0,30.398,13.608,30.398,30.398v324.246
				c0,16.79-13.608,30.398-30.398,30.398H96.261c-16.79,0-30.398-13.608-30.398-30.398V30.398C65.863,13.608,79.471,0,96.261,0z"/>
			<path style="fill:#71C4D1;" d="M501.569,0h-5.066L111.46,385.043h390.109c16.79,0,30.398-13.608,30.398-30.398V30.398
				C531.967,13.608,518.359,0,501.569,0z"/>
			<rect x="96.261" y="70.929" style="fill:#5EB3D1;" width="405.308" height="20.265"/>
			<rect x="96.261" y="121.592" style="fill:#5EB3D1;" width="91.194" height="20.265"/>
			<rect x="96.261" y="162.123" style="fill:#5EB3D1;" width="70.929" height="20.265"/>
			<rect x="96.261" y="202.654" style="fill:#5EB3D1;" width="60.796" height="20.265"/>
			<rect x="96.261" y="243.185" style="fill:#5EB3D1;" width="60.796" height="20.265"/>
			<rect x="96.261" y="283.716" style="fill:#5EB3D1;" width="60.796" height="20.265"/>
			<rect x="96.261" y="324.246" style="fill:#5EB3D1;" width="91.194" height="20.265"/>
			<rect x="410.374" y="121.592" style="fill:#5EB3D1;" width="91.194" height="20.265"/>
			<rect x="430.64" y="162.123" style="fill:#5EB3D1;" width="70.929" height="20.265"/>
			<rect x="440.772" y="202.654" style="fill:#5EB3D1;" width="60.796" height="20.265"/>
			<rect x="440.772" y="243.185" style="fill:#5EB3D1;" width="60.796" height="20.265"/>
			<rect x="440.772" y="283.716" style="fill:#5EB3D1;" width="60.796" height="20.265"/>
			<rect x="410.374" y="324.246" style="fill:#5EB3D1;" width="91.194" height="20.265"/>
			<rect x="96.261" y="30.398" style="fill:#5EB3D1;" width="20.265" height="20.265"/>
			<rect x="136.791" y="30.398" style="fill:#5EB3D1;" width="20.265" height="20.265"/>
			<rect x="177.322" y="30.398" style="fill:#5EB3D1;" width="20.265" height="20.265"/>
			<path style="fill:#E34B87;" d="M410.374,253.317v-40.531h-33.053c-1.885-7.326-4.793-14.338-8.633-20.853l23.366-23.366
				l-28.655-28.655l-23.366,23.366c-6.515-3.84-13.527-6.748-20.853-8.633v-33.053h-40.531v33.053
				c-7.326,1.885-14.338,4.793-20.853,8.633l-23.366-23.366l-28.655,28.655l23.366,23.366c-3.84,6.515-6.748,13.527-8.633,20.853
				h-33.053v40.531h33.053c1.885,7.326,4.793,14.338,8.633,20.853l-23.366,23.366l28.655,28.655l23.366-23.366
				c6.515,3.84,13.527,6.748,20.853,8.633v33.053h40.531v-33.053c7.326-1.885,14.338-4.793,20.853-8.633l23.366,23.366
				l28.655-28.655l-23.366-23.366c3.84-6.515,6.748-13.527,8.633-20.853C377.321,253.317,410.374,253.317,410.374,253.317z
				 M298.915,273.583c-22.383,0-40.531-18.148-40.531-40.531s18.148-40.531,40.531-40.531c22.383,0,40.531,18.148,40.531,40.531
				S321.298,273.583,298.915,273.583z"/>
		</g>
	</g>
</g>
<g>
</g>
<g>
</g>
<g>
</g>
<g>
</g>
<g>
</g>
<g>
</g>
<g>
</g>
<g>
</g>
<g>
</g>
<g>
</g>
<g>
</g>
<g>
</g>
<g>
</g>
<g>
</g>
<g>
</g>
</svg>
